<?xml version="1.0" standalone="no"?>
<!DOCTYPE svg PUBLIC "-//W3C//DTD SVG 1.1//EN" "http://www.w3.org/Graphics/SVG/1.1/DTD/svg11.dtd" >
<svg xmlns="http://www.w3.org/2000/svg" xmlns:xlink="http://www.w3.org/1999/xlink" version="1.1">
<metadata>
Created by FontForge 20170731 at Tue May 24 19:24:00 2022
 By Aleksey,,,
</metadata>
<defs>
<font id="DesignRegular" horiz-adv-x="867" >
  <font-face 
    font-family="Design"
    font-weight="400"
    font-stretch="normal"
    units-per-em="1000"
    panose-1="0 0 0 0 0 0 0 0 0 0"
    ascent="800"
    descent="-200"
    x-height="641"
    cap-height="700"
    bbox="-125.75 -274.6 1277.5 1026.1"
    underline-thickness="0"
    underline-position="0"
    unicode-range="U+000A-20AC"
  />
<missing-glyph horiz-adv-x="527" 
d="M50 700h427v-700h-427v700zM78 680l185 -309l186 309h-371zM251 350l-180 300v-601zM264 329l-185 -308h370zM276 350l181 -303v605z" />
    <glyph glyph-name=".notdef" horiz-adv-x="527" 
d="M50 700h427v-700h-427v700zM78 680l185 -309l186 309h-371zM251 350l-180 300v-601zM264 329l-185 -308h370zM276 350l181 -303v605z" />
    <glyph glyph-name=".null" horiz-adv-x="0" 
 />
    <glyph glyph-name=".null" horiz-adv-x="0" 
 />
    <glyph glyph-name="nonmarkingreturn" horiz-adv-x="333" 
 />
    <glyph glyph-name="controlLF" unicode="&#xa;" horiz-adv-x="0" 
 />
    <glyph glyph-name="controlCR" unicode="&#xd;" horiz-adv-x="0" 
 />
    <glyph glyph-name="space" unicode=" " horiz-adv-x="445" 
 />
    <glyph glyph-name="exclam" unicode="!" horiz-adv-x="321" 
d="M201 210q16 0 25.5 -11.5t6.5 -27.5l-22 -132q-3 -16 -17 -27.5t-30 -11.5h-132q-16 0 -25.5 11.5t-6.5 27.5l22 132q3 16 16.5 27.5t30.5 11.5h132zM289 699q17 0 26.5 -11.5t6.5 -27.5l-65 -358q-3 -16 -16.5 -27.5t-29.5 -11.5h-132q-17 0 -26.5 11.5t-6.5 27.5
l65 358q3 16 16.5 27.5t29.5 11.5h132z" />
    <glyph glyph-name="quotedbl" unicode="&#x22;" horiz-adv-x="438" 
d="M481 802q20 0 29.5 -15.5t1.5 -35.5l-75 -180q-5 -14 -18 -23t-27 -9h-58q-13 0 -20.5 9t-5.5 23l33 190q3 17 17.5 29t31.5 12h91zM232 802q20 0 29.5 -15.5t1.5 -35.5l-75 -180q-6 -14 -18.5 -23t-27.5 -9h-58q-13 0 -20.5 9t-5.5 23l34 190q3 17 17 29t31 12h92z" />
    <glyph glyph-name="numbersign" unicode="#" horiz-adv-x="641" 
d="M616 484q6 0 9.5 -4t2.5 -10l-9 -50q-1 -6 -6 -10t-11 -4q-1 0 -2 -0.5t-3 -0.5h-7h-12h-20.5h-31.5h-8.5h-22.5h-29q-18 -97 -20 -110q40 0 136 1q6 0 9.5 -4.5t2.5 -10.5l-9 -49q-1 -7 -6 -11t-11 -4h-4.5h-21t-50.5 -1h-8.5h-23h-28.5q-3 -14 -5.5 -28t-4 -21.5
t-1.5 -8.5q-4 -21 -7 -37.5t-4.5 -26t-2.5 -16t-1.5 -9.5t-0.5 -4q-1 -6 -6.5 -10.5t-11.5 -4.5h-50q-6 0 -9.5 4.5t-2.5 10.5q14 81 27 151h-112q-3 -14 -5.5 -28.5t-4 -21.5t-1.5 -8q-3 -21 -6 -37.5t-5 -26t-3 -16t-1.5 -9.5t-0.5 -4q-1 -6 -6 -10.5t-12 -4.5h-50
q-6 0 -9.5 4.5t-2.5 10.5q15 84 27 151h-68.5h-47.5h-19q-7 -1 -10.5 3.5t-2.5 10.5l9 50q1 6 6 10t12 4h4h12.5h22.5t39 0.5t57 0.5q2 11 4 20q4 26 7 39q2 10 5 27t4 24q-37 0 -68.5 -0.5t-47.5 -0.5h-19q-6 0 -9.5 4.5t-2.5 10.5l8 49q2 6 7 10.5t11 4.5h10h42.5h82.5
q6 34 11 61.5t8 43t5 26t3 15.5t1 6q1 6 6 10t12 4h50q6 0 9.5 -4t2.5 -10q-1 -3 -4.5 -23.5t-10 -55.5t-13.5 -72h53h18h22h19l11 60.5t8 43t5 26t3 15.5t1 6q1 6 6 10t11 4h50q7 0 10.5 -4t2.5 -10q-1 -3 -4.5 -23.5t-10 -55.5t-13.5 -72h136zM377 354q6 37 9 51h-112
q-3 -17 -10 -54.5t-10 -55.5h24.5h27.5h18h21h21q2 11 4 21q1 7 3 19.5t4 18.5z" />
    <glyph glyph-name="dollar" unicode="$" horiz-adv-x="815" 
d="M761 700q16 0 25.5 -11.5t6.5 -27.5l-18 -101q-3 -16 -16.5 -27.5t-29.5 -11.5h-428q-10 0 -18 -6.5t-10 -16.5l-8 -44q-1 -10 4.5 -16.5t15.5 -6.5h316q77 0 121.5 -53.5t30.5 -129.5l-11 -65q-14 -76 -78 -129.5t-141 -53.5h-21h-45l-10 -57q-3 -16 -17 -27.5
t-30 -11.5h-133q-16 0 -25.5 11.5t-6.5 27.5l10 57h-201q-16 0 -25.5 11.5t-6.5 27.5l19 105q3 17 16.5 28t29.5 11h439q10 0 18.5 7t9.5 17l6 33q2 9 -3.5 16t-15.5 7h-316q-77 0 -121.5 53.5t-31.5 129.5l13 71q14 76 78 129.5t141 53.5h66l7 39q3 16 16.5 27.5t29.5 11.5
h133q16 0 25.5 -11.5t7.5 -27.5l-7 -39h189z" />
    <glyph glyph-name="percent" unicode="%" horiz-adv-x="827" 
d="M126 391q-35 0 -55 24t-14 58l27 149q6 34 35 58t63 24h178q35 0 55 -24.5t14 -58.5l-27 -148q-6 -34 -34.5 -58t-63.5 -24h-178zM178 612l-23 -129q0 -4 2 -6q2 -3 6 -3h134q9 0 11 10l23 128q1 4 -1 6.5t-6 2.5h-134q-10 0 -12 -9zM701 313q35 0 55 -24.5t14 -58.5
l-27 -148q-6 -34 -34.5 -58t-63.5 -24h-178q-35 0 -55 24t-14 58l27 149q6 34 35 58t63 24h178zM649 93l23 128q1 4 -1 6.5t-6 2.5h-134q-10 0 -11 -9l-24 -129q0 -3 2 -6t6 -3h134q9 0 11 10zM800 699q2 -5 -2 -8l-643 -671q-19 -20 -46 -20h-78q-5 0 -7 4.5t1 8.5l644 671
q19 20 46 20h78q5 0 7 -5z" />
    <glyph glyph-name="ampersand" unicode="&#x26;" horiz-adv-x="785" 
d="M743 436q11 0 18 -8.5t5 -19.5l-21 -119q-1 -8 -7.5 -13.5t-15.5 -5.5h-78v-5.5v-5.5q-1 -16 -3 -32l-5 -26l-3 -19q-3 -13 -6 -24q-21 -68 -80 -113t-128 -45h-254q-62 0 -104.5 38.5t-46.5 97.5q-2 23 2 46l5 25l2 17q1 2 1 3q3 15 7 31q5 18 11 32q6 12 13 23
q20 33 45 51q-29 40 -20 92q1 4 1 5l4 23l7 41q13 72 73 123t132 51h237q64 0 105.5 -41.5t40.5 -104.5q0 -12 -8.5 -20t-20.5 -8h-314q-14 0 -26 -10.5t-15 -24.5l-3 -19q-3 -15 5.5 -25t23.5 -10h421zM431 235q3 14 -5.5 24.5t-22.5 10.5h-126q-15 0 -27 -10.5t-14 -24.5
l-3 -19q-3 -14 5.5 -24t22.5 -10h126q15 0 27 10t14 24z" />
    <glyph glyph-name="quotesingle" unicode="'" horiz-adv-x="209" 
d="M240 802q20 0 29.5 -15.5t1.5 -35.5l-75 -180q-6 -14 -18.5 -23t-27.5 -9h-58q-13 0 -20.5 9t-5.5 23l34 190q3 17 17 29t31 12h92z" />
    <glyph glyph-name="parenleft" unicode="(" horiz-adv-x="342" 
d="M325 707q16 -3 22.5 -16.5t1.5 -29.5q-65 -185 -88 -311t-25 -312q0 -16 -11.5 -29.5t-28.5 -16.5q-11 -2 -21 -4q-17 -3 -45 -8t-47 -9q-13 -2 -21 -4q-17 -3 -28.5 7.5t-11.5 28.5q2 207 27.5 347t97.5 346q6 18 21.5 28.5t31.5 7.5q4 -1 9.5 -2t9.5 -2q42 -8 87 -17
q4 -1 9.5 -2t9.5 -2z" />
    <glyph glyph-name="parenright" unicode=")" horiz-adv-x="342" 
d="M278 732q17 3 29 -7.5t11 -28.5q-2 -207 -27.5 -347t-97.5 -346q-6 -18 -21.5 -28.5t-31.5 -7.5q-3 1 -9 2t-10 2q-42 8 -87 17q-10 2 -19 4q-15 3 -22 16.5t-2 29.5q65 185 88 311t25 312q0 16 12 29.5t28 16.5q4 1 10.5 2t10.5 2q16 3 44.5 8t47.5 9q4 1 10.5 2t10.5 2
z" />
    <glyph glyph-name="asterisk" unicode="*" horiz-adv-x="445" 
d="M453.5 615q5.5 -5 5.5 -13v-54q0 -8 -5 -13q-6 -6 -13 -5l-111 6l62 -93q4 -6 2 -13.5t-8 -11.5l-47 -28q-6 -3 -13.5 -1t-11.5 8l-53 102l-54 -102q-4 -6 -11 -8t-14 2l-46 27q-7 4 -8.5 11.5t2.5 13.5l61 93l-111 -6q-7 0 -12.5 5t-5.5 13v54q0 8 5 13q6 5 13 5l111 -6
l-61 93q-4 6 -2.5 13.5t8.5 11.5l46 27q7 4 14 2t11 -8l54 -102l53 102q4 6 11.5 8t13.5 -2l47 -27q6 -4 8 -11.5t-2 -13.5l-62 -93l111 6q7 0 12.5 -5z" />
    <glyph glyph-name="plus" unicode="+" horiz-adv-x="507" 
d="M456 442q15 0 24 -11t6 -26l-19 -111q-3 -15 -15.5 -26t-28.5 -11h-94l-17 -98q-3 -15 -15.5 -26t-27.5 -11h-111q-15 0 -24 11t-7 26l18 98h-94q-15 0 -24 11t-6 26l19 111q3 15 15.5 26t27.5 11h94l18 98q3 15 15.5 26t27.5 11h111q15 0 24 -11t6 -26l-17 -98h94z" />
    <glyph glyph-name="comma" unicode="," horiz-adv-x="229" 
d="M131 184q20 0 29.5 -15.5t1.5 -34.5l-75 -181q-6 -14 -18.5 -22.5t-27.5 -8.5h-58q-13 0 -20.5 9t-5.5 22l34 190q3 17 17 29t31 12h92z" />
    <glyph glyph-name="hyphen" unicode="-" horiz-adv-x="422" 
d="M373 442q15 0 24 -11t6 -26l-19 -111q-3 -15 -16 -26t-28 -11h-292q-15 0 -24 11t-6 26l19 111q3 15 15.5 26t27.5 11h293z" />
    <glyph glyph-name="period" unicode="." horiz-adv-x="242" 
d="M146 184q16 0 24.5 -10.5t6.5 -25.5l-20 -111q-3 -15 -15.5 -26t-27.5 -11h-111q-15 0 -24 10.5t-6 26.5l19 111q3 15 15.5 25.5t27.5 10.5h111z" />
    <glyph glyph-name="slash" unicode="/" horiz-adv-x="570" 
d="M596 699q13 0 19 -11.5t-1 -22.5l-404 -627q-24 -38 -69 -38h-168q-13 0 -19.5 11.5t1.5 22.5l404 627q24 38 69 38h168z" />
    <glyph glyph-name="zero" unicode="0" horiz-adv-x="796" 
d="M623 705q78 0 122.5 -54t31.5 -130l-62 -338q-13 -76 -77.5 -129.5t-141.5 -53.5h-322q-77 0 -122 53.5t-31 129.5l61 338q14 76 78 130t141 54h322zM507 207l53 293q2 9 -4 16t-16 7h-221q-10 0 -18 -7t-10 -16l-53 -293q-2 -9 4 -16t15 -7h222q10 0 18 7t10 16z" />
    <glyph glyph-name="one" unicode="1" horiz-adv-x="411" 
d="M299 39q-3 -16 -17 -27.5t-30 -11.5h-133q-16 0 -25.5 11.5t-6.5 27.5l83 459q2 10 -4 16.5t-16 6.5h-54q-16 0 -25.5 11.5t-6.5 27.5l19 106q3 16 16.5 27.5t29.5 11.5h250q17 0 26.5 -11.5t6.5 -27.5z" />
    <glyph glyph-name="two" unicode="2" horiz-adv-x="816" 
d="M169 0q-78 0 -123 53.5t-32 129.5l11 66q13 76 77 129.5t141 53.5h317q10 0 18 7t10 17l7 44q2 9 -4 16t-15 7h-429q-17 0 -26.5 11.5t-6.5 27.5l17 101q3 16 16.5 27.5t29.5 11.5h469q77 0 122.5 -53.5t32.5 -129.5l-12 -72q-13 -76 -77 -129.5t-141 -53.5h-317
q-10 0 -18 -7t-10 -17l-6 -33q-2 -9 4 -16t16 -7h441q16 0 25.5 -11.5t7.5 -27.5l-19 -106q-2 -16 -15.5 -27.5t-30.5 -11.5h-20h-460z" />
    <glyph glyph-name="three" unicode="3" horiz-adv-x="787" 
d="M754 447q-8 -49 -47 -96q22 -47 13 -96l-12 -72q-14 -76 -78.5 -129.5t-141.5 -53.5h-469q-16 0 -25.5 11.5t-6.5 27.5l18 101q3 16 16.5 27.5t30.5 11.5h428q10 0 18.5 7t10.5 16l8 44q1 10 -4.5 17t-15.5 7h-237q-16 0 -25.5 11.5t-6.5 27.5q2 12 7 41t8 43
q3 16 16.5 27.5t29.5 11.5h237q9 0 17.5 7t9.5 17l8 44q2 10 -4 16.5t-16 6.5h-429q-16 0 -25.5 11.5t-7.5 27.5l18 101q3 16 16.5 27.5t29.5 11.5h469q77 0 122.5 -53.5t32.5 -129.5z" />
    <glyph glyph-name="four" unicode="4" horiz-adv-x="819" 
d="M728 285q15 -1 24 -12t7 -27l-19 -103q-2 -17 -15.5 -28.5t-29.5 -11.5l-11 -64q-3 -16 -17 -27.5t-30 -11.5h-133q-16 0 -25.5 11.5t-6.5 27.5l11 65l-459 2q-17 0 -26 11.5t-6 28.5l10 61q6 30 37 71l52 70l254 341q11 16 32 16h166q23 0 33 -20q11 -21 -3 -40
l-201 -269l-65 -89h209l48 260q3 16 16.5 27.5t30.5 11.5h132q16 0 26 -11.5t7 -27.5z" />
    <glyph glyph-name="five" unicode="5" horiz-adv-x="821" 
d="M605 438q77 0 122 -53.5t31 -129.5l-13 -72q-13 -76 -77.5 -129.5t-141.5 -53.5h-502q-16 0 -25.5 11.5t-6.5 27.5l18 101q3 16 16.5 27.5t30.5 11.5h461q10 0 18.5 7t9.5 16l8 45q2 9 -3.5 16t-15.5 7h-431q-21 0 -33.5 15t-8.5 37l55 311q5 28 28 48t52 20l559 1h21
q16 0 25.5 -11.5t6.5 -27.5l-19 -106q-3 -16 -16.5 -27.5t-30.5 -11.5h-420q-10 0 -18 -6.5t-10 -16.5l-6 -33q-2 -10 4 -17t15 -7h297z" />
    <glyph glyph-name="six" unicode="6" horiz-adv-x="824" 
d="M610 438q77 0 122 -53.5t31 -129.5l-12 -72q-14 -76 -78.5 -129.5t-141.5 -53.5h-6h-18h-27h-34h-39h-42h-42h-42h-37h-75q-3 1 -13 1q-6 1 -13 2q-12 2 -24 6q-23 7 -42 21t-32 33t-20 42q-7 24 -6 50q0 13 3 26l52 296l8 42q13 76 77.5 129.5t141.5 53.5h449h21
q16 0 25.5 -11.5t6.5 -27.5l-19 -106q-3 -16 -16.5 -27.5t-29.5 -11.5h-430q-10 0 -18.5 -6.5t-9.5 -16.5l-6 -33q-2 -10 3.5 -17t15.5 -7h317zM552 202l8 44q1 10 -4.5 17t-15.5 7h-276q-10 0 -19 -7.5t-10 -18.5l-7 -40q-2 -10 4 -17.5t17 -7.5h275q9 0 17.5 7t10.5 16z
" />
    <glyph glyph-name="seven" unicode="7" horiz-adv-x="714" 
d="M60 557l18 106q2 16 16 27.5t30 11.5h21h18l558 2q24 0 33 -20.5t-5 -41.5q-1 -2 -2 -5l-175 -265v-1l-131 -200l-102 -155q-10 -16 -30 -16h-194h-1q-16 0 -22 13.5t3 28.5l190 290h1l8 12q57 88 114 174h-315q-17 0 -26.5 11.5t-6.5 27.5z" />
    <glyph glyph-name="eight" unicode="8" horiz-adv-x="820" 
d="M756 260q0 -15 -3 -32l-5 -25l-3 -20q-3 -13 -6 -24q-21 -68 -80.5 -113.5t-128.5 -45.5h-364q-63 0 -105.5 38.5t-46.5 98.5q-2 23 2 46l4 25l4 17v3q3 15 7 31q5 18 11 32q6 13 13 23q20 34 46 52q-30 40 -20 92v5l4 23l7 42q13 72 73.5 123.5t133.5 51.5h346
q73 0 115 -51.5t30 -124.5l-8 -41l-4 -23l-1 -5q-9 -52 -53 -92q20 -18 28 -52q4 -13 5 -27q1 -11 -1 -27zM539 218l3 18q3 15 -5.5 25t-23.5 10h-235q-14 0 -26 -10t-15 -25l-3 -18q-3 -15 5.5 -25t23.5 -10h235q14 0 26 10t15 25zM298 493l-3 -20q-3 -14 5.5 -24.5
t22.5 -10.5h204q15 0 27 10.5t14 24.5l4 20q2 14 -6.5 24.5t-22.5 10.5h-204q-14 0 -26 -10.5t-15 -24.5z" />
    <glyph glyph-name="nine" unicode="9" horiz-adv-x="823" 
d="M214 264q-77 0 -122 53.5t-32 129.5l13 72q14 76 78.5 129.5t141.5 53.5h361v-1q74 0 117.5 -52.5t30.5 -127.5l-52 -296l-8 -42q-13 -76 -77.5 -129.5t-141.5 -53.5h-449h-21q-16 0 -25.5 11.5t-6.5 27.5l19 106q3 16 16.5 27.5t30.5 11.5h429q10 0 18.5 7t9.5 16l6 34
q2 9 -3.5 16t-15.5 7h-317zM272 500l-8 -44q-1 -10 4.5 -17t15.5 -7h276q10 0 19 7.5t10 18.5l7 40q2 10 -4 17.5t-17 7.5h-275q-9 0 -17.5 -6.5t-10.5 -16.5z" />
    <glyph glyph-name="colon" unicode=":" horiz-adv-x="277" 
d="M240 615q15 0 24 -10.5t6 -25.5l-19 -111q-3 -15 -15.5 -26t-28.5 -11h-111q-15 0 -24 11t-6 26l20 111q2 15 15 25.5t28 10.5h111zM178 268q16 0 24.5 -11t6.5 -26l-20 -111q-3 -15 -15.5 -26t-27.5 -11h-111q-15 0 -24 11t-6 26l19 111q3 15 15.5 26t27.5 11h111z" />
    <glyph glyph-name="semicolon" unicode=";" horiz-adv-x="275" 
d="M165 269q20 0 29.5 -15.5t1.5 -35.5l-75 -180q-6 -14 -19 -23t-27 -9h-58q-13 0 -20.5 9.5t-5.5 22.5l34 190q3 17 17 29t31 12h92zM243 617q15 0 24 -11t6 -26l-19 -111q-3 -15 -15.5 -26t-28.5 -11h-110q-16 0 -24.5 11t-6.5 26l20 111q2 15 15 26t28 11h111z" />
    <glyph glyph-name="less" unicode="&#x3c;" horiz-adv-x="600" 
d="M564 630q13 6 24 -2.5t8 -22.5q-3 -20 -12.5 -74t-13.5 -74q-5 -31 -33 -44q-109 -51 -152 -71q-5 -2 -5 -8t5 -8q20 -12 63 -36t58 -33q26 -14 21 -44l-23 -131q-2 -10 -10.5 -14t-16.5 1q-18 10 -198 111t-247 139q-19 11 -18 32t20 30q380 179 530 249z" />
    <glyph glyph-name="equal" unicode="=" horiz-adv-x="511" 
d="M462 577q16 0 24.5 -11t6.5 -26l-20 -111q-2 -15 -15 -26t-28 -11h-343q-15 0 -24 11t-6 26l20 111q2 15 15 26t28 11h342zM422 307q15 0 24 -11t7 -26l-20 -111q-3 -15 -15.5 -26t-27.5 -11h-244h-6h-93q-15 0 -24 11t-6 26l19 111q3 15 15.5 26t27.5 11h343z" />
    <glyph glyph-name="greater" unicode="&#x3e;" horiz-adv-x="600" 
d="M566 380q19 -11 18 -32t-20 -30q-55 -26 -263.5 -124t-266.5 -125q-13 -6 -24 2.5t-9 22.5q25 140 27 148q5 30 33 43q19 9 71 33.5t81 38.5q5 2 5.5 7.5t-4.5 8.5q-21 11 -123 69q-26 14 -21 44l24 131q1 9 10 13.5t17 -0.5q18 -10 197.5 -111t247.5 -139z" />
    <glyph glyph-name="question" unicode="?" horiz-adv-x="653" 
d="M321 212q17 0 26.5 -11.5t6.5 -27.5l-23 -132q-3 -16 -16.5 -27.5t-29.5 -11.5h-132q-17 0 -26.5 11.5t-6.5 27.5l23 132q3 16 16.5 27.5t29.5 11.5h132zM497 701q76 0 121 -53.5t31 -128.5l-13 -72q-14 -75 -78 -128.5t-141 -53.5h-215q-18 0 -27 15t-1 31
q30 54 83.5 87.5t113.5 33.5q48 0 56 8q7 6 15 48l2 12q1 9 -4.5 16t-15.5 7h-334q-16 0 -25.5 11.5t-6.5 27.5l18 100q3 16 16.5 27.5t30.5 11.5h374z" />
    <glyph glyph-name="at" unicode="@" horiz-adv-x="775" 
d="M719.5 606.5q46.5 -55.5 32.5 -132.5v-4q-24 -131 -38 -207q-5 -29 -27 -47.5t-51 -18.5h-63q-30 0 -56 17l-5 3l-5 -3q-22 -17 -48 -17h-211q-21 0 -34 15q-13 16 -9 35l34 190q5 28 27.5 46.5t50.5 18.5h213q20 0 33 -15q12 -15 9 -36l-25 -135q-3 -17 7 -30
q8 -10 19 -10h46q7 0 13 5t7 13l35 194q8 40 -15 67.5t-64 27.5h-315q-46 0 -84 -32t-47 -77l-47 -262q-7 -41 15.5 -68.5t64.5 -27.5h314q40 0 76 26q12 9 22 -2l32 -31q6 -6 5.5 -14t-7.5 -13q-59 -45 -128 -45h-314q-79 0 -125.5 56t-32.5 133l47 262q14 73 74.5 123.5
t135.5 50.5h314q78 0 124.5 -55.5zM459 276l27 147h-169l-26 -147h168z" />
    <glyph glyph-name="A" unicode="A" horiz-adv-x="848" 
d="M-53 16q-7 16 5 33l406 614q14 19 33.5 27t48.5 9v-1h1v1h32h5h6h6q7 0 23 -0.5t26 -0.5h3.5t9.5 -1.5t12.5 -5t12 -11t10.5 -17.5l200 -614q5 -17 -6 -33t-28 -16h-159q-18 0 -24 18l-18 58h-338l-13 -21l-26 -37q-13 -18 -33 -18h-169q-19 0 -26 16zM443 425l-119 -182
h177z" />
    <glyph glyph-name="B" unicode="B" horiz-adv-x="834" 
d="M32 0q-16 0 -25.5 11.5t-6.5 27.5l112 623q3 16 16.5 27t30.5 11h499q77 0 121.5 -53.5t30.5 -128.5l-10 -56q0 -1 -1 -5q-9 -53 -54 -94q2 1 13 -18.5t14 -24.5q9 -21 8 -46q0 -16 -5 -41l-11 -61q-13 -71 -73 -121.5t-132 -50.5h-527zM251 263l-13 -74q-2 -7 6 -7h276
q15 0 27 10t15 24l3 20q3 14 -5.5 24t-23.5 10h-276q-8 0 -9 -7zM297 517l-13 -73q-1 -7 6 -7h259q14 0 26.5 10t14.5 24l4 20q2 14 -6.5 24t-22.5 10h-259q-7 0 -9 -8z" />
    <glyph glyph-name="C" unicode="C" horiz-adv-x="689" 
d="M168 0q-77 0 -122 53.5t-31 129.5l62 336q14 75 78 128.5t140 53.5h387q17 0 26.5 -11.5t6.5 -27.5l-19 -103q-3 -16 -16.5 -27.5t-29.5 -11.5h-337q-10 0 -18 -7t-10 -16l-53 -290q-2 -10 4 -17t16 -7h336q17 0 26.5 -11t6.5 -28l-19 -105q-3 -16 -16.5 -27.5
t-30.5 -11.5h-387z" />
    <glyph glyph-name="D" unicode="D" horiz-adv-x="795" 
d="M32 0q-16 0 -25.5 11.5t-6.5 27.5l112 624q3 16 17 27.5t30 11.5h469q77 0 121.5 -53.5t31.5 -129.5l-61 -336q-14 -76 -78 -129.5t-141 -53.5h-469zM295 498l-53 -291q-2 -10 4 -17t15 -7h223q10 0 18 7t10 17l53 291q2 10 -4 16.5t-16 6.5h-222q-10 0 -18.5 -6.5
t-9.5 -16.5z" />
    <glyph glyph-name="E" unicode="E" horiz-adv-x="745" 
d="M32 0q-16 0 -25.5 11.5t-6.5 27.5l112 623q3 16 16.5 27.5t30.5 11.5h589q10 0 16 -7t4 -16l-24 -132q-2 -10 -10 -17t-18 -7h-410q-8 0 -9 -8l-13 -72q-1 -8 7 -8h329q10 0 15.5 -6.5t4.5 -16.5l-22 -121q-2 -10 -10.5 -16.5t-17.5 -6.5h-330q-8 0 -9 -8l-12 -68
q-2 -7 6 -7h410q10 0 15.5 -7t3.5 -17l-24 -137q-2 -9 -10 -16t-18 -7h-590z" />
    <glyph glyph-name="F" unicode="F" horiz-adv-x="722" 
d="M32 0q-16 0 -25.5 11.5t-6.5 27.5l112 622q3 16 16.5 27.5t30.5 11.5h588q10 0 15.5 -7t3.5 -16l-23 -132q-2 -10 -10 -16.5t-18 -6.5h-409q-8 0 -9 -8l-13 -72q-2 -8 6 -8h329q10 0 15.5 -7t3.5 -17l-21 -121q-2 -9 -10.5 -16t-17.5 -7h-329q-8 0 -10 -8l-39 -219
q-3 -16 -16.5 -27.5t-30.5 -11.5h-132z" />
    <glyph glyph-name="G" unicode="G" horiz-adv-x="832" 
d="M804 699q16 0 25.5 -11t6.5 -27l-18 -101q-3 -16 -16.5 -27.5t-29.5 -11.5h-458q-10 0 -18.5 -6.5t-9.5 -16.5l-53 -290q-1 -10 4.5 -17t15.5 -7h280q8 0 10 8l12 68q1 8 -7 8h-150q-10 0 -16 6.5t-4 16.5l22 121q2 10 10 16.5t18 6.5h328q17 0 26.5 -11t6.5 -28
l-65 -357q-3 -16 -16.5 -27.5t-29.5 -11.5h-21l-489 1q-77 0 -121.5 53.5t-30.5 129.5l60 332q14 76 78 129.5t141 53.5h509z" />
    <glyph glyph-name="H" unicode="H" horiz-adv-x="804" 
d="M772 700q17 0 26.5 -11.5t6.5 -27.5l-112 -622q-3 -16 -17 -27.5t-30 -11.5h-132q-16 0 -25.5 11.5t-7.5 27.5l40 221q2 8 -6 8h-256q-8 0 -9 -8l-40 -221q-3 -16 -16.5 -27.5t-30.5 -11.5h-132q-16 0 -25.5 11.5t-6.5 27.5l112 622q3 16 16.5 27.5t30.5 11.5h132
q16 0 25.5 -11.5t6.5 -27.5l-39 -218q-1 -7 6 -7h256q8 0 10 7l39 218q3 16 16.5 27.5t29.5 11.5h132z" />
    <glyph glyph-name="I" unicode="I" horiz-adv-x="321" 
d="M158 700h132q16 0 25.5 -11.5t6.5 -27.5l-112 -622q-3 -16 -16.5 -27.5t-30.5 -11.5h-132q-16 0 -25.5 11.5t-6.5 27.5l112 622q3 16 16.5 27.5t30.5 11.5z" />
    <glyph glyph-name="J" unicode="J" horiz-adv-x="655" 
d="M356 0h-371q-16 0 -25.5 11.5t-6.5 27.5l19 105q3 17 16.5 28t29.5 11h322q10 0 18 7t10 17l82 454q3 16 16.5 27.5t29.5 11.5h132q17 0 26.5 -11.5t6.5 -27.5l-87 -478q-13 -76 -77 -129.5t-141 -53.5z" />
    <glyph glyph-name="K" unicode="K" horiz-adv-x="772" 
d="M0 39l112 622q3 16 16.5 27.5t30.5 11.5h132q16 0 25.5 -11.5t6.5 -27.5l-43 -240q-1 -2 -0.5 -4t2.5 -5.5t9 2.5l282 273q15 13 33 13h206q10 0 12.5 -9t-5.5 -16l-332 -321q-6 -5 -2 -10l216 -319q5 -8 -1 -17t-16 -9h-206q-18 0 -28 14l-126 187l-95 -90q-7 -7 -8 -15
l-10 -56q-3 -16 -16.5 -27.5t-30.5 -11.5h-132q-16 0 -25.5 11.5t-6.5 27.5z" />
    <glyph glyph-name="L" unicode="L" horiz-adv-x="659" 
d="M111 661q3 16 16.5 27.5t30.5 11.5h132q16 0 25.5 -11.5t6.5 -27.5l-82 -454q-2 -10 4 -17t15 -7h322q16 0 25.5 -11t7.5 -28l-20 -105q-2 -16 -16 -27.5t-30 -11.5h-517q-16 0 -25.5 11.5t-6.5 27.5z" />
    <glyph glyph-name="M" unicode="M" horiz-adv-x="995" 
d="M158 699h153q25 0 31 -22l120 -433q2 -6 8 -7t10 4l290 436q15 22 40 22h153q17 0 26.5 -11t6.5 -27l-112 -622q-3 -16 -17 -27.5t-30 -11.5h-119q-17 0 -26.5 11.5t-6.5 27.5l45 249l-177 -265q-15 -23 -40 -23h-158q-25 0 -32 23l-81 263l-45 -247q-3 -16 -16.5 -27.5
t-30.5 -11.5h-119q-16 0 -25.5 11.5t-6.5 27.5l112 622q3 16 16.5 27t30.5 11z" />
    <glyph glyph-name="N" unicode="N" horiz-adv-x="837" 
d="M291 393q-4 5 -10.5 4t-7.5 -8l-63 -350q-3 -16 -16.5 -27.5t-30.5 -11.5h-131q-16 0 -25.5 11.5t-6.5 27.5l112 622q3 16 16.5 27t30.5 11h167q18 0 27 -13l198 -352q4 -6 10.5 -4.5t7.5 7.5l59 324q3 16 16.5 27t29.5 11h131q17 0 26.5 -11t6.5 -27l-112 -622
q-3 -16 -17 -27.5t-30 -11.5h-145q-18 0 -27 14z" />
    <glyph glyph-name="O" unicode="O" 
d="M699 702q77 0 122 -53.5t31 -129.5l-61 -336q-14 -76 -78 -129.5t-141 -53.5h-403q-77 0 -122 53.5t-31 129.5l61 336q13 76 77.5 129.5t141.5 53.5h403zM583 207l53 291q2 10 -4 16.5t-15 6.5h-304q-10 0 -18.5 -6.5t-9.5 -16.5l-53 -291q-2 -10 4 -17t15 -7h304
q10 0 18.5 7t9.5 17z" />
    <glyph glyph-name="P" unicode="P" horiz-adv-x="810" 
d="M810 518l-28 -159q-14 -76 -78 -129.5t-141 -53.5h-320q-8 0 -9 -8l-23 -129q-3 -16 -17 -27.5t-30 -11.5h-132q-16 0 -25.5 11.5t-6.5 27.5l112 622q3 17 16.5 28t30.5 11h499q76 0 121 -53.5t31 -128.5zM594 490q2 15 -6.5 25t-22.5 10h-259q-7 0 -9 -8l-28 -158
q-2 -8 6 -8h258q15 0 27 10t15 25z" />
    <glyph glyph-name="Q" unicode="Q" 
d="M791 183q-8 -47 -38 -87.5t-73 -64.5q-6 -4 -5 -10l11 -49q4 -15 -5 -30t-26 -21q-14 -5 -40 -14.5t-37 -13.5q-1 0 -11.5 -4t-12.5 -4.5t-13 -4t-13 -3t-13 -1t-13 1.5q-22 4 -26 23l-22 94q-1 5 -6 5h-279q-77 0 -122 53.5t-31 129.5l61 336q13 76 77.5 129.5
t141.5 53.5h403q77 0 122 -53.5t31 -129.5zM584 207l52 291q2 10 -4 16.5t-15 6.5h-304q-10 0 -18 -6.5t-10 -16.5l-53 -291q-2 -10 4 -17t16 -7h304q9 0 17.5 7t10.5 17z" />
    <glyph glyph-name="R" unicode="R" horiz-adv-x="827" 
d="M32 0q-16 0 -25.5 11.5t-6.5 27.5l112 623q3 16 16.5 27t30.5 11h499q77 0 121.5 -53.5t30.5 -128.5l-28 -159q-10 -51 -44 -94t-83 -66q-8 -5 -4 -12l82 -143q8 -14 0 -28t-25 -14q-37 0 -82 -1t-57 -1q-38 0 -52.5 3t-20.5 16l-75 147q-6 10 -18 10h-160q-8 0 -9 -8
l-23 -129q-3 -16 -17 -27.5t-30 -11.5h-132zM297 517l-28 -158q-2 -8 6 -8h258q15 0 27 10.5t15 24.5l19 105q2 14 -6.5 24t-22.5 10h-258q-8 0 -10 -8z" />
    <glyph glyph-name="S" unicode="S" horiz-adv-x="796" 
d="M494 0h-459q-16 0 -25.5 11.5t-6.5 27.5l19 105q3 17 16.5 28t29.5 11h439q10 0 18.5 7t9.5 17l6 33q2 9 -3.5 16t-15.5 7h-316q-77 0 -121.5 53.5t-31.5 129.5l13 71q14 76 78 129.5t141 53.5h467q16 0 25.5 -11.5t6.5 -27.5l-18 -101q-3 -16 -16.5 -27.5t-29.5 -11.5
h-428q-10 0 -18 -6.5t-10 -16.5l-8 -44q-1 -10 4.5 -16.5t15.5 -6.5h316q77 0 121.5 -53.5t30.5 -129.5l-11 -65q-14 -76 -78 -129.5t-141 -53.5h-20z" />
    <glyph glyph-name="T" unicode="T" horiz-adv-x="708" 
d="M723 700q17 0 26.5 -11.5t6.5 -27.5l-18 -101q-3 -16 -16.5 -27t-30.5 -11h-193q-8 0 -9 -8l-86 -475q-3 -16 -16.5 -27.5t-30.5 -11.5h-132q-16 0 -25.5 11.5t-6.5 27.5l86 475q1 8 -7 8h-193q-16 0 -25.5 11t-6.5 27l18 101q3 16 16.5 27.5t29.5 11.5h613z" />
    <glyph glyph-name="U" unicode="U" horiz-adv-x="836" 
d="M809 702q16 0 25.5 -11.5t6.5 -27.5l-86 -481q-14 -75 -78 -128.5t-141 -53.5h-20h-1l-343 1q-77 0 -121.5 53.5t-30.5 128.5l87 480q3 16 16.5 27.5t29.5 11.5h126q16 0 25.5 -11.5t6.5 -27.5l-82 -455q-2 -10 3.5 -17t15.5 -7h276q10 0 18.5 7t9.5 17l82 455
q3 16 17 27.5t30 11.5h128z" />
    <glyph glyph-name="V" unicode="V" horiz-adv-x="783" 
d="M817 699q12 0 17.5 -10t-0.5 -21q-163 -302 -345 -642q-14 -26 -42 -26h-238q-13 0 -22 7.5t-11 18.5q-60 347 -113 642q-2 11 7 21t21 10h161q12 0 21 -7t11 -19l77 -435q1 -7 8 -8t10 5l236 438q14 26 42 26h160z" />
    <glyph glyph-name="W" unicode="W" horiz-adv-x="1170" 
d="M1205 699q13 0 18 -10t-1 -21l-353 -642q-14 -26 -42 -26h-138q-13 0 -22 7t-11 18l-62 319q-1 7 -8 8t-10 -5l-179 -322q-15 -25 -42 -25h-139q-12 0 -21 7t-11 19l-121 642q-2 11 7 21t21 10h164q12 0 21 -7t11 -19l63 -325q1 -6 8 -7.5t11 4.5l181 330q14 25 42 25
h113q13 0 22 -7t11 -18l61 -326q2 -7 9 -8.5t10 4.5l182 329q14 25 42 25h163z" />
    <glyph glyph-name="X" unicode="X" horiz-adv-x="759" 
d="M778 699q14 0 18.5 -12.5t-6.5 -24.5l-267 -291q-13 -14 -5 -28l170 -305q7 -12 -2 -24.5t-23 -12.5h-194q-20 0 -29 16l-85 152q-2 5 -7 5.5t-9 -3.5l-142 -154q-15 -16 -35 -16h-193q-15 0 -19 12.5t6 24.5l282 305q12 14 5 28l-163 291q-7 12 2 24.5t24 12.5h193
q20 0 29 -16l77 -138q3 -4 8 -5t8 3l129 140q15 16 35 16h193z" />
    <glyph glyph-name="Y" unicode="Y" horiz-adv-x="717" 
d="M756 700q14 0 18.5 -12t-4.5 -23l-318 -408q-7 -15 -9 -19l-36 -199q-3 -16 -16.5 -27.5t-29.5 -11.5h-132q-17 0 -26.5 11.5t-6.5 27.5l36 199q-1 12 -2 21l-170 406q-5 11 4 23t22 12h168q22 0 30 -19l87 -207q2 -5 7.5 -6t9.5 4l163 209q15 19 38 19h167z" />
    <glyph glyph-name="Z" unicode="Z" horiz-adv-x="753" 
d="M744 699q16 0 25.5 -11.5t6.5 -27.5l-16 -88q-9 -51 -54 -84l-364 -291q-4 -4 -3 -9t6 -5h305q17 0 26.5 -11.5t6.5 -27.5l-19 -105q-3 -16 -16.5 -27.5t-30.5 -11.5h-609q-16 0 -25.5 11.5t-6.5 27.5l16 93q10 51 56 84l367 291q5 4 4 9t-7 5h-304q-17 0 -26.5 11.5
t-6.5 27.5l18 100q3 16 17 27.5t30 11.5h604z" />
    <glyph glyph-name="bracketleft" unicode="[" horiz-adv-x="424" 
d="M434 798q17 0 27 -12t7 -28l-19 -104q-3 -17 -17 -29t-31 -12h-69q-10 0 -18 -6.5t-10 -16.5q-62 -336 -88 -481q-2 -10 3.5 -17t15.5 -7h73q17 0 27 -11.5t7 -28.5l-19 -104q-3 -17 -17 -28.5t-31 -11.5q-71 0 -116 1q-77 0 -121.5 53.5t-30.5 128.5q54 300 62.5 350
t32.5 182q13 75 77.5 128.5t141.5 53.5h7h19.5h26.5h30.5h29.5z" />
    <glyph glyph-name="backslash" unicode="\" horiz-adv-x="537" 
d="M466 38q4 -14 -5 -26t-24 -12h-128q-22 0 -39.5 13t-23.5 35l-178 613q-4 14 5 26t24 12h127q22 0 40 -13t24 -35z" />
    <glyph glyph-name="bracketright" unicode="]" horiz-adv-x="424" 
d="M264 797q76 0 120.5 -53.5t31.5 -128.5q-55 -300 -63 -350t-32 -182q-14 -75 -78 -128.5t-141 -53.5h-7.5h-19.5h-26h-30.5h-30.5q-17 0 -26.5 11.5t-6.5 28.5l18 104q4 17 18 28.5t31 11.5h69q9 0 17.5 7t10.5 17l6 34.5t16.5 90t22 118t23.5 128t20 110.5q2 10 -4 17
t-16 7h-72q-17 0 -27 11.5t-7 28.5l19 104q3 17 17 28.5t31 11.5q71 -1 116 -1z" />
    <glyph glyph-name="asciicircum" unicode="^" horiz-adv-x="676" 
d="M42 257q-14 0 -19.5 12.5t3.5 23.5l187 206q32 35 90 35h107q25 0 40 -19l177 -224q8 -10 2 -22t-19 -12h-17h-62h-60q-29 0 -49 24l-83 105l-101 -111q-17 -18 -42 -18h-154z" />
    <glyph glyph-name="underscore" unicode="_" horiz-adv-x="482" 
d="M417 0q15 0 24 -11t6 -26l-20 -111q-2 -15 -15 -25.5t-28 -10.5h-479q-15 0 -24 10.5t-6 25.5l19 111q3 15 15.5 26t27.5 11h480z" />
    <glyph glyph-name="grave" unicode="`" horiz-adv-x="373" 
d="M384 529.5q-5 -9.5 -16 -9.5h-103h-6h-6h-5.5t-6 0.5t-5 1t-5.5 2t-5 3t-5.5 3.5t-5.5 4l-155 161q-8 9 -3.5 19.5t16.5 10.5h165q25 0 39 -21l106 -157q6 -8 1 -17.5z" />
    <glyph glyph-name="a" unicode="a" horiz-adv-x="782" 
d="M543 604l181 -552q6 -18 -6 -35t-30 -17h-144q-21 0 -27 20l-15 48h-296l-11 -16l-23 -34q-14 -18 -35 -18h-152q-20 0 -28 18t5 35l364 553q16 21 36 27.5t50 7.5h43.5h40.5q12 0 26.5 -8.5t20.5 -28.5zM452 231l-45 143l-95 -143h140z" />
    <glyph glyph-name="b" unicode="b" horiz-adv-x="772" 
d="M602 643q72 0 114 -50.5t29 -121.5l-9 -52q0 -2 -1 -3q-8 -47 -46 -84q30 -38 29 -79q0 -16 -14 -94q-12 -65 -68 -112t-123 -47h-474q-18 0 -28 12.5t-7 29.5l101 561q3 16 17 28t31 12h449zM504 405q23 0 32 29t-9 37q-4 2 -9 2h-232q-2 0 -3 -2l-11 -66h232zM478 176
q23 0 33 29q9 28 -9 36q-4 2 -9 2h-249q-2 0 -2 -2l-12 -65v-1z" />
    <glyph glyph-name="c" unicode="c" horiz-adv-x="641" 
d="M623 643q18 0 28.5 -12.5t7.5 -29.5l-17 -93q-3 -17 -17 -28.5t-31 -11.5h-303q-7 0 -12.5 -4.5t-6.5 -11.5l-48 -261q-1 -6 2.5 -10t9.5 -4h303q18 0 28 -12.5t7 -29.5l-17 -95q-3 -17 -17 -28.5t-31 -11.5h-349q-72 0 -114 50.5t-29 121.5l56 302q12 70 71.5 119.5
t130.5 49.5h348z" />
    <glyph glyph-name="d" unicode="d" horiz-adv-x="737" 
d="M575 644q72 0 114.5 -50.5t29.5 -121.5l-55 -303q-13 -70 -72.5 -119.5t-130.5 -49.5h-422q-18 0 -28 12.5t-7 29.5l101 562q3 17 17 28.5t31 11.5h422zM236 181q3 -4 9 -4h201q7 0 12.5 5t6.5 11l47 262q1 6 -2 10t-9 4h-201q-6 0 -12 -4.5t-7 -11.5l-47 -262
q-1 -6 2 -10z" />
    <glyph glyph-name="e" unicode="e" horiz-adv-x="691" 
d="M684 643q11 0 18 -8.5t5 -19.5l-21 -119q-2 -11 -11 -18.5t-21 -7.5h-368q-2 0 -3 -2l-11 -65h296q12 0 19 -8t5 -20l-20 -109q-2 -11 -11 -18.5t-20 -7.5h-297q-2 0 -2 -2l-11 -61h368q12 0 19 -8t5 -20l-22 -123q-2 -11 -11 -18.5t-20 -7.5h-531q-18 0 -28 12.5
t-7 29.5l101 561q3 17 17 28.5t31 11.5h531z" />
    <glyph glyph-name="f" unicode="f" horiz-adv-x="670" 
d="M682 642q12 0 19 -8.5t5 -19.5l-21 -119q-2 -11 -11.5 -18.5t-20.5 -7.5h-368q-2 0 -2 -2l-12 -65l296 1q12 0 19 -8.5t5 -20.5l-20 -108q-2 -11 -11 -19t-20 -8h-296q-2 0 -2 -1l-36 -198q-3 -17 -17 -28.5t-31 -11.5h-119q-18 0 -28 12.5t-7 29.5l101 560q3 17 17 28.5
t31 11.5h529z" />
    <glyph glyph-name="g" unicode="g" horiz-adv-x="769" 
d="M732 641q18 0 28 -12.5t7 -29.5l-16 -91q-3 -16 -17 -28t-31 -12h-412q-7 0 -12.5 -4.5t-6.5 -11.5l-48 -261q-1 -6 2.5 -10t9.5 -4h252q2 0 3 2l11 61h-136q-11 0 -18 8.5t-5 19.5l19 109q2 11 11 18.5t21 7.5h295q18 0 28.5 -12.5t6.5 -29.5l-58 -322q-3 -16 -17 -28
t-31 -12q-20 0 -458 1q-72 0 -114 50.5t-29 121.5l54 299q13 70 72.5 120t130.5 50h458z" />
    <glyph glyph-name="h" unicode="h" horiz-adv-x="746" 
d="M706 642q18 0 28 -12.5t7 -29.5l-101 -560q-3 -17 -17 -28.5t-31 -11.5h-118q-18 0 -28.5 12.5t-7.5 29.5l36 199h-230q-2 0 -2 -2l-36 -199q-3 -17 -17 -28.5t-31 -11.5h-119q-18 0 -28 12.5t-7 29.5l101 560q3 17 17 28.5t31 11.5h119q17 0 27.5 -12.5t7.5 -29.5
l-35 -196h230q2 0 2 2l35 196q3 17 17 28.5t31 11.5h119z" />
    <glyph glyph-name="i" unicode="i" horiz-adv-x="312" 
d="M272 642q17 0 27.5 -12.5t7.5 -29.5l-101 -560q-3 -17 -17 -28.5t-31 -11.5h-119q-18 0 -28 12.5t-7 29.5l101 560q3 17 17 28.5t31 11.5h119z" />
    <glyph glyph-name="j" unicode="j" horiz-adv-x="610" 
d="M575 642q17 0 27.5 -12.5t7.5 -29.5l-78 -431q-12 -70 -71.5 -119.5t-131.5 -49.5h-333q-18 0 -28 12.5t-7 29.5l17 95q3 17 17 28.5t31 11.5h289q7 0 12.5 5t6.5 11l74 409q3 17 17 28.5t31 11.5h119z" />
    <glyph glyph-name="k" unicode="k" horiz-adv-x="716" 
d="M741 643q13 0 17 -12t-6 -22l-300 -289q-1 0 -1 -1l195 -287q6 -9 0 -20q-7 -13 -20 -13h-186q-19 0 -30 15l-110 163l-79 -76q-5 -5 -6 -11l-9 -50q-3 -17 -17 -28.5t-31 -11.5h-119q-18 0 -28 12.5t-7 29.5l101 560q3 17 17 28.5t31 11.5h119q17 0 27.5 -12.5
t7.5 -29.5l-39 -216v0l254 244q15 15 34 15h185z" />
    <glyph glyph-name="l" unicode="l" horiz-adv-x="615" 
d="M534 177q17 0 27.5 -12.5t7.5 -29.5l-17 -95q-3 -17 -17 -28.5t-31 -11.5h-465q-18 0 -28 12.5t-7 29.5l101 560q3 17 17 28.5t31 11.5h119q17 0 27.5 -12.5t7.5 -29.5l-74 -409q-1 -6 2 -10t9 -4h290z" />
    <glyph glyph-name="m" unicode="m" horiz-adv-x="918" 
d="M878 642q18 0 28 -12.5t7 -30.5l-101 -559q-3 -17 -17 -28.5t-31 -11.5h-107q-18 0 -28.5 12.5t-6.5 29.5l35 195l-143 -214q-15 -23 -41 -23h-142q-28 0 -35 25l-66 213l-36 -198q-3 -17 -17 -28.5t-31 -11.5h-107q-18 0 -28 12.5t-7 29.5l101 560q3 17 17 28.5t31 11.5
h137q28 0 35 -25l107 -390q1 -2 3 -2t3 1l261 393q15 23 41 23h138z" />
    <glyph glyph-name="n" unicode="n" horiz-adv-x="774" 
d="M735 642q17 0 27.5 -12.5t7.5 -29.5l-101 -560q-3 -17 -17 -28.5t-31 -11.5h-130q-20 0 -30 15l-194 341q-1 2 -3 1q-2 0 -2 -1v-1l-57 -315q-3 -17 -17 -28.5t-31 -11.5h-118q-18 0 -28 12.5t-7 29.5l101 560q3 17 17 28.5t31 11.5h150q20 0 30 -15l179 -317q1 -2 2 -1
q2 0 2 2l53 291q3 17 17 28.5t31 11.5h118z" />
    <glyph glyph-name="o" unicode="o" horiz-adv-x="801" 
d="M639 644q72 0 114 -50.5t29 -121.5l-55 -303q-12 -70 -71.5 -119.5t-130.5 -49.5h-364q-72 0 -114 50.5t-29 121.5l54 303q13 70 72.5 119.5t130.5 49.5h364zM224 191q-1 -6 2.5 -10t9.5 -4h273q7 0 12.5 5t7.5 11l47 262q1 6 -2.5 10t-9.5 4h-273q-7 0 -12.5 -4.5
t-6.5 -11.5z" />
    <glyph glyph-name="p" unicode="p" horiz-adv-x="748" 
d="M602 643q72 0 114 -50.5t29 -121.5l-26 -143q-12 -70 -71.5 -120t-130.5 -50h-288q-2 0 -2 -2l-21 -116q-4 -17 -17.5 -28.5t-30.5 -11.5h-119q-18 0 -28 12.5t-7 29.5l101 561q3 16 17 28t31 12h449zM538 449q2 10 -4 17t-16 7h-232q-2 0 -2 -2l-26 -143h232q11 0 20 8
t11 18z" />
    <glyph glyph-name="q" unicode="q" horiz-adv-x="801" 
d="M639 644q72 0 114 -50.5t29 -121.5l-54 -303q-8 -42 -35.5 -79.5t-68.5 -61.5q-1 0 -1 -1l10 -45q4 -16 -5.5 -31.5t-26.5 -21.5l-1 -0.5l-1 -0.5q-34 -12 -55 -20q-25 -11 -52 -17q-28 -7 -45 4q-12 7 -15 21l-20 84h-251q-72 0 -114 50.5t-29 121.5l55 303
q12 70 71.5 119.5t130.5 49.5h364zM224 191q-1 -6 2.5 -10t9.5 -4h273q7 0 12.5 5t7.5 11l47 262q1 6 -2.5 10t-9.5 4h-273q-7 0 -12.5 -4.5t-6.5 -11.5z" />
    <glyph glyph-name="r" unicode="r" horiz-adv-x="766" 
d="M602 643q72 0 114 -50.5t29 -121.5l-25 -143q-9 -47 -40.5 -86.5t-77.5 -62.5q-1 0 -1 -1l73 -129q9 -16 0 -31.5t-28 -15.5q-32 0 -72.5 -1t-66.5 -1t-38.5 4t-18.5 17l-67 131q-3 6 -10 6h-144q-2 0 -2 -2l-21 -116q-3 -17 -17 -28.5t-31 -11.5h-119q-18 0 -28 12.5
t-7 29.5l101 561q3 16 17 28t31 12h449zM538 449q2 10 -3.5 17t-16.5 7h-232q-2 0 -2 -2l-26 -143h232q11 0 20 8t11 19z" />
    <glyph glyph-name="s" unicode="s" horiz-adv-x="736" 
d="M687 642q18 0 28 -12.5t7 -29.5l-16 -91q-3 -17 -17 -28.5t-31 -11.5h-385q-6 0 -12 -4.5t-7 -11.5l-7 -40q-1 -5 2.5 -9t9.5 -4h284q72 0 114 -50.5t29 -121.5l-10 -59q-13 -70 -72.5 -119.5t-130.5 -49.5h-431q-18 0 -28 12.5t-7 29.5l17 95q3 17 17 28.5t31 11.5h395
q7 0 12.5 5t6.5 11l5 30q1 6 -2 10t-9 4h-284q-73 0 -115 50t-29 121l12 64q12 70 71.5 120t131.5 50h420z" />
    <glyph glyph-name="t" unicode="t" horiz-adv-x="655" 
d="M660 642q17 0 27.5 -12.5t7.5 -29.5l-16 -91q-3 -16 -17 -28t-31 -12h-174q-2 0 -2 -2l-78 -427q-3 -17 -16.5 -28.5t-31.5 -11.5h-118q-18 0 -28.5 12.5t-7.5 29.5l78 428l-174 -1q-18 0 -28 12.5t-7 30.5l16 90q3 17 17 28.5t31 11.5h552z" />
    <glyph glyph-name="u" unicode="u" horiz-adv-x="773" 
d="M738 644q17 0 27.5 -12.5t7.5 -29.5l-78 -433q-13 -70 -72 -119.5t-131 -49.5h-17h-2l-308 1q-73 0 -114.5 50.5t-28.5 120.5l78 432q3 16 17 28t31 12h113q17 0 27.5 -12.5t7.5 -29.5l-74 -410q-1 -6 2 -10t9 -4h249q6 0 12 5t7 11l74 410q3 17 17 28.5t31 11.5h115z
" />
    <glyph glyph-name="v" unicode="v" horiz-adv-x="724" 
d="M745 641q14 0 20 -11q8 -12 0 -26l-46 -86q-101 -186 -209 -388l-55 -103q-14 -27 -43 -27h-215q-13 0 -23 8t-12 21l-20 116q-34 196 -65 367l-17 94q-2 13 8 24t24 11h144q14 0 23.5 -7.5t11.5 -20.5l69 -391q1 -3 3 -3t2 1l212 395q14 26 43 26h145z" />
    <glyph glyph-name="w" unicode="w" horiz-adv-x="1072" 
d="M1114 630q7 -12 -1 -26l-317 -578q-14 -26 -43 -26h-125q-13 0 -23 7.5t-12 20.5l-56 286q0 3 -2 3t-3 -1l-161 -290q-15 -26 -43 -26h-125q-13 0 -23 7.5t-12 20.5l-109 578q-2 12 7 23q10 12 25 12h147q13 0 23 -7.5t12 -20.5l57 -292q0 -2 2 -3q2 0 3 2l163 296
q14 27 43 27h102q14 0 23.5 -8t12.5 -20l55 -294q0 -2 2 -3q2 0 3 2l164 295q14 26 43 26h147q14 0 21 -11z" />
    <glyph glyph-name="x" unicode="x" horiz-adv-x="705" 
d="M711 641q16 0 22 -13q7 -16 -6 -30l-241 -262q-8 -9 -4 -18l154 -275q7 -13 -1 -26q-10 -17 -28 -17h-173q-22 0 -32 18l-77 137q0 2 -1.5 2t-2.5 -1l-128 -139q-15 -17 -36 -17h-174q-16 0 -22 14q-7 16 6 30l253 275q9 9 4 18l-146 262q-7 12 1 26q9 16 27 16h174
q22 0 32 -17l69 -124q1 -2 2 -2q2 0 3 1l115 126q15 16 36 16h174z" />
    <glyph glyph-name="y" unicode="y" horiz-adv-x="663" 
d="M707 601l-286 -367l-7 -16l-32 -178q-4 -17 -17.5 -28.5t-30.5 -11.5h-119q-18 0 -28.5 12.5t-6.5 29.5l32 178q-1 10 -2 17l-153 365q-5 13 3 25q10 15 27 15h150q25 0 33 -21l78 -186q1 -1 3 -2q1 0 2 1l147 189q15 19 39 19h150q17 0 22.5 -14t-4.5 -27z" />
    <glyph glyph-name="z" unicode="z" horiz-adv-x="699" 
d="M679 641q18 0 28 -12t7 -30l-14 -79q-9 -48 -52 -79l-326 -263q-2 -1 -2 -2l275 1q18 0 28 -12.5t7 -29.5l-17 -95q-3 -17 -17 -28.5t-31 -11.5h-548q-18 0 -28 12.5t-7 29.5l15 84q9 48 52 79l330 262q2 1 1 2h-273q-18 0 -28.5 12.5t-7.5 29.5l17 90q3 17 17 28.5
t31 11.5h543z" />
    <glyph glyph-name="braceleft" unicode="{" horiz-adv-x="476" 
d="M488 798q17 0 26.5 -12t6.5 -28l-19 -104q-3 -17 -17 -29t-31 -12h-53q-16 0 -29 -11t-16 -27q-2 -11 -3 -19q-6 -33 -27 -61l-74 -94q-9 -11 -5 -23v-1q21 -50 36 -87q16 -38 9 -78q-2 -12 -15 -83q-3 -17 8 -30.5t28 -13.5h35q15 0 21 -1q2 -1 5 -2q11 -5 17 -15.5
t4 -21.5l-19 -104q-3 -17 -17 -28.5t-31 -11.5q-71 0 -116 1q-76 0 -120.5 53.5t-31.5 128.5q11 59 21 117q10 51 -11 100l-32 76v1q-4 12 6 23l67 87q27 35 35 78q4 21 9 50q14 75 78 128.5t141 53.5h7.5h19.5h26h30.5h30.5z" />
    <glyph glyph-name="verticalbar" unicode="|" horiz-adv-x="323" 
d="M310 814q17 0 26.5 -11.5t6.5 -27.5q-5 -27 -78.5 -433t-75.5 -417q-3 -16 -16.5 -27.5t-30.5 -11.5h-131q-16 0 -25.5 11.5t-6.5 27.5q88 490 154 850q2 16 16 27.5t30 11.5h131z" />
    <glyph glyph-name="braceright" unicode="}" horiz-adv-x="477" 
d="M451 393q4 -12 -6 -23l-67 -87q-27 -35 -35 -78q-1 -7 -11 -59.5t-12 -62.5q-14 -75 -78 -128.5t-141 -53.5h-7.5h-19.5h-26.5h-31h-29.5q-17 0 -26.5 12t-6.5 28l18 104q3 17 17.5 28.5t31.5 11.5q28 1 52 1q17 0 30 10.5t16 27.5q1 11 3 18q4 25 18 73.5t23 60.5l74 94
q9 11 5 23v1q-21 50 -37 87q-16 38 -8 78l1 8l-1 -4l-1 -4q0 2 2 11q3 17 -8 30.5t-29 13.5q-3 0 -15.5 -1t-22 -0.5t-17.5 2.5q-12 3 -19 11q-10 12 -7 28l19 104q3 16 17 28t31 12q71 -1 116 -1q76 0 120.5 -53.5t31.5 -128.5q-5 -24 -5 -26.5t-2 -18.5q-10 -51 11 -100
l31 -76l0.5 -0.5z" />
    <glyph glyph-name="asciitilde" unicode="~" horiz-adv-x="573" 
d="M38 186q-9 0 -15.5 7t-5.5 16q7 81 47 125q26 30 71 41.5t82 8t58 -14.5q5 -2 9.5 -4.5t10.5 -6t10 -5.5t13 -8.5t14 -8.5q12 -7 27.5 -5t25.5 13q3 4 7 13.5t9 15t14 5.5h98q9 0 15.5 -6.5t5.5 -15.5v-4q-4 -71 -46 -121t-111 -47h-24.5t-27.5 0.5t-22 3.5t-25 7
q-22 9 -43 26q-16 13 -34 15.5t-35 -11.5q-4 -4 -8 -14.5t-9 -17.5t-15 -7h-96z" />
    <glyph glyph-name="nonbreakingspace" unicode="&#xa0;" horiz-adv-x="445" 
 />
    <glyph glyph-name="exclamdown" unicode="&#xa1;" horiz-adv-x="307" 
d="M203 260q16 0 25.5 -11.5t7.5 -27.5l-65 -358q-3 -16 -17 -27.5t-30 -11.5h-132q-16 0 -25.5 11.5t-6.5 27.5l65 358q2 16 16 27.5t30 11.5h132zM250 523q16 0 25.5 -11.5t6.5 -27.5l-22 -132q-3 -16 -17 -27.5t-30 -11.5h-132q-16 0 -25.5 11.5t-6.5 27.5l22 132
q3 16 16.5 27.5t29.5 11.5h133z" />
    <glyph glyph-name="cent" unicode="&#xa2;" horiz-adv-x="656" 
d="M627 672q18 0 28.5 -12.5t7.5 -30.5l-17 -92q-3 -17 -17 -28.5t-31 -11.5h-303q-7 0 -12.5 -5t-6.5 -11l-48 -261q-1 -6 2.5 -10t9.5 -4h303q18 0 28 -12.5t7 -29.5l-17 -96q-3 -16 -17 -28t-31 -12h-148l-9 -47q-1 -7 -6.5 -11.5t-12.5 -4.5h-47q-7 0 -11 5t-3 12l8 46
h-120q-72 0 -114 50.5t-29 121.5l56 303q12 70 71.5 119.5t130.5 49.5h120l9 47q1 7 6.5 11.5t12.5 4.5h47q7 0 11 -5t3 -12l-8 -46h147z" />
    <glyph glyph-name="sterling" unicode="&#xa3;" horiz-adv-x="702" 
d="M638 697q16 0 25.5 -11.5t6.5 -27.5l-18 -101q-3 -16 -16.5 -27.5t-30.5 -11.5h-210q-10 0 -18.5 -6.5t-9.5 -16.5l-8 -44q-2 -10 3.5 -16.5t15.5 -6.5h1h114q15 0 23.5 -10.5t6.5 -25.5l-18 -96q-2 -15 -14.5 -25t-27.5 -10h-128q-3 -29 -15 -83h282q16 0 25 -11t7 -27
l-19 -102q-3 -16 -16 -27t-29 -11h-554q-16 0 -25.5 11.5t-6.5 27.5l18 100q3 17 16.5 28t29.5 11h3h44q10 0 18 7t10 17l8 44q2 8 -3 15h-56q-15 0 -23.5 10.5t-6.5 24.5l18 96q2 15 14.5 25.5t27.5 10.5h51q1 9 2 15l13 71q14 76 78 129.5t141 53.5h251z" />
    <glyph glyph-name="currency" unicode="&#xa4;" horiz-adv-x="633" 
d="M519 405l-30 -168q-2 -8 -5 -16l61 -61q7 -8 7 -19t-9 -18l-57 -52q-8 -7 -19 -6.5t-18 9.5l-59 73q-5 -1 -10 -1h-189l-75 -74q-8 -8 -19 -7.5t-18 8.5l-52 58q-7 8 -6.5 18.5t9.5 17.5l71 58q0 7 1 12l30 168q2 9 5 17l-60 60q-7 8 -6.5 19t8.5 18l57 52q9 7 19.5 6.5
t17.5 -8.5l59 -73h10h196l75 74q7 8 18 7.5t18 -8.5l52 -58q8 -8 7 -18.5t-9 -17.5l-79 -64q-1 -5 -1 -6zM411 395q1 4 -1.5 7.5t-7.5 3.5h-152q-12 0 -14 -11l-26 -146q-1 -5 2 -8t8 -3h151q12 0 14 11z" />
    <glyph glyph-name="yen" unicode="&#xa5;" horiz-adv-x="758" 
d="M774 700q14 0 18.5 -12t-4.5 -24l-269 -344h114q7 0 11 -5t3 -12l-9 -46q-1 -7 -6.5 -11.5t-12.5 -4.5h-62h-1h-93q-1 -2 -2 -3l-9 -50h160q7 0 11.5 -5t2.5 -12l-8 -46q-1 -7 -7 -11.5t-12 -4.5h-62h-1h-98l-13 -70q-3 -16 -16.5 -27.5t-29.5 -11.5h-132
q-17 0 -26.5 11.5t-6.5 27.5l13 70h-142q-7 0 -11 5t-3 12l9 47q1 6 6.5 11t12.5 5h88h1h53l9 49v1.5v1.5l-144 1q-7 0 -11.5 4.5t-2.5 11.5l8 47q1 6 6.5 11t12.5 5h88h1h14l-145 343q-5 12 4 24t23 12h168q22 0 30 -20l87 -206q2 -5 7.5 -6t9.5 3l163 209q15 20 37 20h168
z" />
    <glyph glyph-name="brokenbar" unicode="&#xa6;" horiz-adv-x="324" 
d="M204 221q17 0 26.5 -11.5t6.5 -27.5l-59 -319q-3 -16 -16.5 -27.5t-29.5 -11.5h-132q-16 0 -26 11.5t-7 27.5l59 319q3 16 16.5 27.5t30.5 11.5h131zM292 698q17 0 26.5 -11t6.5 -27l-60 -326q-3 -16 -16.5 -27t-29.5 -11h-132q-16 0 -25.5 11t-6.5 27l59 326
q3 16 16.5 27t30.5 11h131z" />
    <glyph glyph-name="section" unicode="&#xa7;" horiz-adv-x="547" 
d="M425 498q45 0 69.5 -30t17.5 -72l-19 -88q-7 -38 -37 -68l-10 -11q3 -9 4.5 -14.5t3 -10.5t1.5 -11v-9.5t-1.5 -12.5t-2.5 -14t-3.5 -20t-4.5 -24q-9 -47 -48 -79.5t-86 -32.5h-238q-6 0 -10 5t-3 11l8 45q1 7 8 13t15 6h214q16 0 29 10.5t16 26.5l7 36q3 18 -8.5 32
t-30.5 14h-196q-44 0 -69 30t-17 73l19 95q7 36 34 62l11 10q-8 34 -7.5 43t11.5 74q9 46 48 79t86 33h234q7 0 11 -5t3 -12l-8 -44q-2 -8 -8.5 -13.5t-14.5 -5.5h-211q-16 0 -29 -11t-16 -27l-6 -37q-3 -18 8.5 -32t29.5 -14h196zM413 380q3 18 -8.5 32t-29.5 14h-183
q-16 0 -29 -10.5t-15 -25.5l-15 -72q-4 -19 7.5 -32.5t30.5 -13.5h183q16 0 29 10.5t16 26.5z" />
    <glyph glyph-name="dieresis" unicode="&#xa8;" horiz-adv-x="490" 
d="M230 703q14 0 22 -9.5t6 -23.5l-18 -100q-3 -14 -14.5 -24t-24.5 -10h-100q-14 0 -22 10t-6 24l18 100q2 14 13.5 23.5t25.5 9.5h100zM488 703q14 0 22 -9.5t6 -23.5l-18 -100q-2 -14 -13.5 -24t-25.5 -10h-100q-14 0 -22 10t-6 24l18 100q3 14 14 23.5t25 9.5h100z" />
    <glyph glyph-name="copyright" unicode="&#xa9;" horiz-adv-x="779" 
d="M562 517q5 0 8 -3t2 -9l-9 -51q-1 -6 -6 -10t-11 -4h-207q-7 0 -12.5 -5t-7.5 -12l-26 -144q-1 -7 3.5 -12.5t12.5 -5.5h207q5 0 8 -3.5t2 -8.5l-10 -53q-1 -6 -6 -10t-11 -4h-232q-35 0 -55.5 24.5t-14.5 58.5l31 167q7 35 37 60t66 25h231zM595 662q77 0 124.5 -54.5
t33.5 -137.5q-13 -68 -21 -112t-14.5 -81t-11.5 -65q-13 -70 -68 -119t-124 -55q-9 -1 -332 -1q-76 0 -124 54.5t-33 137.5q1 4 47 259q12 69 67.5 118t124.5 56h331zM675 488q7 40 -15.5 67.5t-64.5 27.5q-323 0 -334 -2q-38 -7 -68 -34q-30 -26 -39 -68l-16 -73l-35 -194
q-8 -41 15 -68.5t64 -27.5q324 0 335 2q14 3 27 8q31 13 52 39.5t29 60.5l15 67z" />
    <glyph glyph-name="ordfeminine" unicode="&#xaa;" horiz-adv-x="468" 
d="M416 204q3 -8 -3 -16.5t-14 -8.5h-80q-9 0 -11 9l-9 29h-169l-7 -10l-13 -19q-7 -9 -17 -9h-84q-9 0 -12.5 8t2.5 17l202 307q13 17 42 18v-1v1h16h2h3h3h12h13q17 0 24 -18zM184 301h89l-29 91z" />
    <glyph glyph-name="guillemotleft" unicode="&#xab;" horiz-adv-x="785" 
d="M251 332l102 -175q7 -12 0.5 -23.5t-20.5 -11.5h-167q-23 0 -35 19q-13 23 -40.5 70.5t-66.5 112.5q-13 21 7 42q0 -1 6 5.5t21 22t35 36.5t53 55.5t70 72.5q18 19 41 19h167q14 0 16.5 -11.5t-8.5 -23.5l-177 -185q-12 -12 -4 -25zM783 542l-177 -185q-11 -12 -4 -25
l103 -175q7 -12 0 -23.5t-20 -11.5h-168q-22 0 -34 19q-14 23 -41 70.5t-66 112.5q-13 21 7 42q0 -1 5.5 5.5t20.5 22t35.5 36.5t53 55.5t69.5 72.5q18 19 41 19h168q13 0 16 -11.5t-9 -23.5z" />
    <glyph glyph-name="logicalnot" unicode="&#xac;" horiz-adv-x="654" 
d="M590 427q13 0 20.5 -9t5.5 -22l-47 -255q-3 -13 -13.5 -22t-23.5 -9h-105q-13 0 -21 9t-5 22l22 119h-365q-15 0 -23.5 10.5t-6.5 25.5l18 96q2 14 14.5 24.5t27.5 10.5h276v0h114q1 0 2 -0.5l1 -0.5l4 1h105z" />
    <glyph glyph-name="softhyphen" unicode="&#xad;" horiz-adv-x="0" 
 />
    <glyph glyph-name="registered" unicode="&#xae;" horiz-adv-x="410" 
d="M295 620q17 0 27 -12t7 -28l-6 -36q-5 -23 -28 -35q-2 -1 -1 -2l18 -32q2 -3 0 -6t-6 -3q-8 0 -18 -0.5t-13 -0.5q-13 0 -16 4l-16 33q-1 2 -4 2h-36q-1 0 -2 -2l-5 -28q-1 -9 -10 -9h-29q-9 0 -7 9l24 137q2 9 11 9h110zM277 550l4 24q1 7 -6 7h-58q-1 0 -2 -1l-6 -35
q0 -2 1 -2h58q7 0 9 7zM407.5 673q24.5 -29 16.5 -71q-9 -50 -17 -95l-6 -34q-6 -35 -34.5 -60.5t-64.5 -28.5h-1q-3 -1 -40 -1h-15h-19h-91q-40 0 -64.5 29t-16.5 71q9 51 17 94l6 35q6 35 34.5 60.5t64.5 29.5h1h73h92q40 0 64.5 -29zM380 612q3 19 -7.5 31.5t-29.5 12.5
h-86h-34h-46l-1 -1q-18 -3 -33 -16q-13 -12 -18 -32l-8 -37l-18 -97q-3 -19 7.5 -31.5t29.5 -12.5h86q76 0 80 1h1q6 1 13 4q31 12 38 47l8 34z" />
    <glyph glyph-name="overscore" unicode="&#xaf;" horiz-adv-x="527" 
d="M533 567q-2 -14 -14 -24.5t-27 -10.5h-391q-15 0 -23.5 10.5t-5.5 24.5l17 96q3 15 15 25t27 10h276h1h113q15 0 23.5 -10t6.5 -25z" />
    <glyph glyph-name="degree" unicode="&#xb0;" horiz-adv-x="444" 
d="M401 784q39 0 61 -27t15 -65l-30 -168q-7 -38 -39 -64.5t-70 -26.5h-202q-39 0 -61 26.5t-16 64.5l31 168q7 38 39 65t70 27h202zM343 536l27 146q0 4 -2.5 7.5t-7.5 3.5h-152q-12 0 -14 -11l-27 -146q0 -5 2.5 -8.5t7.5 -3.5h152q12 0 14 12z" />
    <glyph glyph-name="plusminus" unicode="&#xb1;" horiz-adv-x="549" 
d="M489 536q15 0 24 -10.5t6 -25.5l-19 -111q-3 -15 -16 -26t-28 -11h-94l-17 -98q-3 -15 -15.5 -25.5t-27.5 -10.5h-111q-15 0 -24 10.5t-6 25.5l17 98h-93q-16 0 -24.5 11t-6.5 26l20 111q2 15 15 25.5t28 10.5h94l17 98q3 15 15.5 26t28.5 11h110q15 0 24 -10.5t6 -26.5
l-17 -98h94zM431 184q16 0 24.5 -10.5t6.5 -26.5l-20 -110q-3 -15 -15.5 -26t-27.5 -11h-346q-15 0 -24 10.5t-6 26.5l19 110q3 16 15.5 26.5t27.5 10.5h346z" />
    <glyph glyph-name="twosuperior" unicode="&#xb2;" horiz-adv-x="429" 
d="M364 703q38 0 61 -27t16 -65l-6 -36q-7 -38 -38.5 -64.5t-70.5 -26.5h-159q-12 0 -13 -12l-3 -17q-1 -5 2 -8t8 -3h220q8 0 13 -6t3 -14l-9 -53q-1 -8 -8 -13.5t-15 -5.5h-10h-230q-39 0 -61.5 26.5t-16.5 64.5l6 33q7 38 38.5 65t70.5 27h158q12 0 14 12l4 22
q1 4 -2 7.5t-8 3.5h-214q-8 0 -13 6t-4 14l9 50q1 8 8 14t15 6h235z" />
    <glyph glyph-name="threesuperior" unicode="&#xb3;" horiz-adv-x="414" 
d="M349 703q39 0 61.5 -27t15.5 -65l-6 -36q-4 -24 -23 -48q11 -23 6 -48l-6 -36q-7 -38 -39 -64.5t-71 -26.5h-234q-9 0 -13.5 5.5t-3.5 13.5l9 51q2 8 9 13.5t15 5.5h214q12 0 14 12l4 22q1 5 -2 8.5t-7 3.5h-119q-8 0 -12.5 5.5t-3.5 13.5q1 6 3.5 20.5t3.5 21.5
q2 8 8.5 14t14.5 6h119q12 0 14 12l4 22q0 4 -2.5 7.5t-7.5 3.5h-215q-8 0 -13 6t-3 14l8 50q2 8 8.5 14t15.5 6h234z" />
    <glyph glyph-name="acute" unicode="&#xb4;" horiz-adv-x="448" 
d="M79 520q-10 0 -15 9.5t1 17.5l106 157q14 21 39 21h165q12 0 16.5 -10.5t-3.5 -19.5l-156 -161q-2 -2 -4.5 -4t-5.5 -3.5t-5.5 -3t-6 -2t-5 -1t-5.5 -0.5h-5.5h-6h-6.5h-103z" />
    <glyph glyph-name="mu" unicode="&#xb5;" horiz-adv-x="783" 
d="M740 643q17 0 27.5 -12.5t7.5 -29.5l-78 -432q-13 -70 -72 -119.5t-130 -49.5h-1h-17h-1l-285 1l-20 -107q-3 -16 -16.5 -27.5t-30.5 -11.5h-115q-18 0 -28.5 12t-7.5 30l130 706q3 16 17 28t31 12h112q18 0 28.5 -12.5t6.5 -29.5l-73 -409q-1 -6 2 -10t9 -4h248
q7 0 12.5 4.5t6.5 11.5l74 409q3 16 17 28t31 12h115z" />
    <glyph glyph-name="paragraph" unicode="&#xb6;" horiz-adv-x="759" 
d="M723 695q18 0 28 -12.5t7 -29.5l-53 -289l-59 -324q-3 -17 -17 -28.5t-30 -11.5h-113q-18 0 -28 12.5t-7 29.5l83 468q-1 2 -2 3q-3 4 -9 4h-92q-7 0 -12.5 -4.5t-7.5 -11.5l-83 -461q-3 -17 -17 -28.5t-31 -11.5h-115q-18 0 -28 12.5t-7 29.5l49 269q-122 14 -120 111
q0 16 16 102q12 71 72.5 121t132.5 50h169l143 -1h3.5h3.5q5 1 9 1h115z" />
    <glyph glyph-name="periodcentered" unicode="&#xb7;" horiz-adv-x="245" 
d="M194 442q16 0 24.5 -11t6.5 -26l-20 -111q-3 -15 -15.5 -26t-27.5 -11h-111q-15 0 -24 11t-6 26l19 111q3 15 15.5 26t27.5 11h111z" />
    <glyph glyph-name="cedilla" unicode="&#xb8;" horiz-adv-x="353" 
d="M214 0l-14 -41q-2 -4 0 -7.5t6 -4.5q47 -12 68 -33q22 -22 23.5 -54t-13.5 -52q-25 -39 -88 -51.5t-118 6.5q-3 1 -8 3q-9 4 -13 12.5t0 18.5l7 21q5 11 15 14q10 4 20 -1q18 -11 39.5 -12.5t35.5 7.5q16 9 16.5 27.5t-19.5 27.5q-11 4 -51 12q-11 2 -16 11.5t-2 20.5
q4 10 23 75h89z" />
    <glyph glyph-name="onesuperior" unicode="&#xb9;" horiz-adv-x="237" 
d="M238 702q8 0 13 -5.5t4 -13.5l-57 -314q-2 -8 -8.5 -14t-14.5 -6h-67q-8 0 -13 6t-3 14l41 229q1 5 -1.5 8.5t-7.5 3.5h-27q-9 0 -13.5 5.5t-3.5 14.5l10 53q1 8 8 13.5t15 5.5h125z" />
    <glyph glyph-name="ordmasculine" unicode="&#xba;" horiz-adv-x="463" 
d="M364 528q39 0 61 -26.5t15 -64.5l-30 -169q-7 -37 -39 -64t-70 -27h-202q-39 0 -61 27t-16 64l31 169q7 38 39 64.5t70 26.5h202zM306 280l27 146q0 5 -2.5 8.5t-7.5 3.5h-152q-12 0 -14 -12l-27 -146q0 -4 2.5 -7.5t7.5 -3.5h152q12 0 14 11z" />
    <glyph glyph-name="guillemotright" unicode="&#xbb;" horiz-adv-x="785" 
d="M408 375q12 -21 -8 -42q1 1 -5 -5.5t-21 -22t-35 -36.5t-53 -55.5t-70 -72.5q-18 -19 -41 -19h-167q-14 0 -16.5 11.5t8.5 23.5l177 185q12 12 4 24l-103 176q-7 12 0 23.5t21 11.5h167q23 0 34 -19q14 -23 41.5 -70.5t66.5 -112.5zM759 375q13 -21 -7 -42q0 1 -6 -5.5
t-21 -22t-35 -36.5t-53 -55.5t-69 -72.5q-19 -19 -41 -19h-168q-13 0 -16 11.5t8 23.5l178 185q11 12 4 24l-103 176q-7 12 -0.5 23.5t20.5 11.5h168q22 0 34 -19q14 -23 41 -71t66 -112z" />
    <glyph glyph-name="onequarter" unicode="&#xbc;" horiz-adv-x="782" 
d="M206 368q-2 -8 -8.5 -14t-14.5 -6h-66q-8 0 -13 6t-3 14l41 227q1 5 -2 8.5t-8 3.5h-27q-8 0 -12.5 5.5t-3.5 13.5l9 53q2 8 8.5 13.5t15.5 5.5h124q8 0 12.5 -5.5t3.5 -13.5zM685 140q8 -1 12.5 -6.5t2.5 -13.5l-9 -51q-1 -8 -7.5 -14t-14.5 -6l-6 -31q-1 -8 -8 -14
t-15 -6h-66q-8 0 -12.5 6t-3.5 14l6 32l-228 1q-8 0 -13 5.5t-3 13.5l5 31q3 15 18 35q4 5 8.5 11t9.5 13t8 11l126 169q6 8 16 8h82q12 0 17 -10t-2 -19l-99 -134l-33 -44l104 -1l24 130q1 8 8 13.5t15 5.5h66q8 0 12.5 -5.5t3.5 -13.5zM64 -2q-15 0 -19 12t6 26l425 612
q14 21 37 34.5t45 13.5h17q15 0 19 -12t-6 -26l-425 -613q-14 -21 -37 -34t-45 -13h-17z" />
    <glyph glyph-name="onehalf" unicode="&#xbd;" horiz-adv-x="778" 
d="M208 368q-1 -8 -8 -14t-15 -6h-66q-8 0 -12.5 6t-3.5 14l41 227q1 5 -2 8.5t-8 3.5h-26q-8 0 -13 5.5t-4 13.5l10 53q1 8 8 13.5t15 5.5h124q8 0 13 -5.5t3 -13.5zM404 -2q-39 0 -61.5 27t-15.5 64l5 33q7 37 38.5 64t69.5 27h158q12 0 14 11l3 22q1 5 -2 8.5t-7 3.5
h-213q-8 0 -13 5.5t-4 13.5l9 50q1 8 8 14t15 6h233q38 0 60.5 -27t15.5 -64l-6 -36q-6 -37 -38 -64t-70 -27h-157q-12 0 -14 -11l-3 -17q-1 -5 2 -8.5t8 -3.5h219q8 0 12.5 -5.5t3.5 -13.5l-9 -52q-1 -8 -8 -14t-15 -6h-10h-228zM44 -2q-15 0 -19 12t6 26l425 612
q14 21 37 34.5t45 13.5h17q15 0 19 -12t-6 -26l-425 -613q-14 -21 -37 -34t-45 -13h-17z" />
    <glyph glyph-name="threequarters" unicode="&#xbe;" horiz-adv-x="924" 
d="M427 570q-4 -24 -23 -47q11 -24 6 -48l-6 -36q-7 -37 -39 -64t-70 -27h-233q-8 0 -12.5 6t-3.5 14l9 50q2 8 8.5 13.5t14.5 5.5h213q12 0 14 12l4 22q1 4 -2 7.5t-8 3.5h-117q-8 0 -13 6t-3 14q1 6 3.5 20.5t3.5 20.5q2 8 8.5 14t14.5 6h118q11 0 13 11l4 22q1 5 -2 8.5
t-8 3.5h-212q-9 0 -13.5 5.5t-3.5 13.5l9 50q1 8 8 14t15 6h232q39 0 61.5 -26.5t15.5 -64.5zM827 140q8 -1 12.5 -6.5t3.5 -13.5l-9 -51q-2 -8 -8.5 -14t-14.5 -6l-6 -31q-1 -8 -8 -14t-15 -6h-66q-8 0 -12.5 6t-3.5 14l6 32l-228 1q-8 0 -13 5.5t-3 13.5l5 31q3 15 18 35
q4 5 8.5 11t10 13t7.5 11l126 169q6 8 16 8h83q11 0 16 -10t-2 -19l-99 -134l-33 -44l104 -1l24 130q1 8 8 13.5t15 5.5h66q8 0 12.5 -5.5t3.5 -13.5zM214 -2q-14 0 -18.5 12t5.5 26l425 612q15 21 38 34.5t45 13.5h16q15 0 19 -12t-5 -26l-425 -613q-15 -21 -38 -34
t-45 -13h-17z" />
    <glyph glyph-name="questiondown" unicode="&#xbf;" horiz-adv-x="606" 
d="M291 313q-17 0 -26.5 11.5t-6.5 27.5l23 132q2 16 16 27.5t30 11.5h132q16 0 25.5 -11.5t7.5 -27.5l-23 -132q-3 -16 -16.5 -27.5t-29.5 -11.5h-132zM522 2q16 0 25.5 -11.5t6.5 -27.5l-18 -100q-3 -16 -17 -27.5t-30 -11.5h-374q-77 0 -121.5 53.5t-30.5 128.5l13 72
q14 75 78 128.5t141 53.5h215q18 0 27 -15q9 -16 0 -31q-29 -54 -82.5 -87.5t-113.5 -33.5q-48 0 -56 -8q-8 -6 -15 -48q-1 -7 -2 -12q-2 -10 4 -16.5t16 -6.5h334z" />
    <glyph glyph-name="Agrave" unicode="&#xc0;" horiz-adv-x="848" 
d="M787 49q5 -17 -6 -33t-28 -16h-159q-18 0 -24 18l-18 58h-338l-13 -21l-27 -37q-12 -18 -32 -18h-169q-19 0 -26 16t5 33l406 614q14 19 33.5 27t48.5 9v-1h1v1h32h5h6h6q7 0 23 -0.5t26 -0.5h3.5t9.5 -1.5t12.5 -5t12 -11t10.5 -17.5zM324 243h177l-58 182zM456 808
l-133 157q-8 9 -3 19t16 10h153q30 0 45 -27l84 -152q5 -9 0 -17.5t-15 -8.5h-107q-24 0 -40 19z" />
    <glyph glyph-name="Aacute" unicode="&#xc1;" horiz-adv-x="848" 
d="M787 49q5 -17 -6 -33t-28 -16h-159q-18 0 -24 18l-18 58h-338l-13 -21l-27 -37q-12 -18 -32 -18h-169q-19 0 -26 16t5 33l406 614q14 19 33.5 27t48.5 9v-1h1v1h32h5h6h6q7 0 23 -0.5t26 -0.5h3.5t9.5 -1.5t12.5 -5t12 -11t10.5 -17.5zM324 243h177l-58 182zM433 789
q-11 0 -16 9.5t1 17.5l106 158q14 20 39 20h166q11 0 16 -10.5t-4 -19.5l-155 -161q-3 -2 -5.5 -4.5t-5.5 -4l-5 -2.5t-5.5 -1.5t-5 -1t-6 -0.5h-5.5h-6h-6h-103z" />
    <glyph glyph-name="Acircumflex" unicode="&#xc2;" horiz-adv-x="848" 
d="M787 49q5 -17 -6 -33t-28 -16h-159q-18 0 -24 18l-18 58h-338l-13 -21l-27 -37q-12 -18 -32 -18h-169q-19 0 -26 16t5 33l406 614q14 19 33.5 27t48.5 9v-1h1v1h32h5h6h6q7 0 23 -0.5t26 -0.5h3.5t9.5 -1.5t12.5 -5t12 -11t10.5 -17.5zM324 243h177l-58 182zM286 792
q-11 0 -16 10.5t3 18.5l122 134q27 30 74 30h90q21 0 34 -17l116 -147q7 -9 2.5 -19t-15.5 -10h-15h-52h-50q-24 0 -40 20l-40 49l-49 -54q-14 -15 -35 -15h-129z" />
    <glyph glyph-name="Atilde" unicode="&#xc3;" horiz-adv-x="848" 
d="M787 49q5 -17 -6 -33t-28 -16h-159q-18 0 -24 18l-18 58h-338l-13 -21l-27 -37q-12 -18 -32 -18h-169q-19 0 -26 16t5 33l406 614q14 19 33.5 27t48.5 9v-1h1v1h32h5h6h6q7 0 23 -0.5t26 -0.5h3.5t9.5 -1.5t12.5 -5t12 -11t10.5 -17.5zM324 243h177l-58 182zM302 812
q-8 0 -13 5.5t-4 13.5q6 67 39 104q22 25 59.5 34.5t68 6.5t48.5 -12l8 -4t9 -5t8 -4q4 -2 11 -7t12 -8q27 -13 44 7q3 4 6 12t7.5 12.5t11.5 4.5h82q8 0 13 -5.5t5 -13.5v-3q-4 -60 -39 -101t-93 -40q-4 0 -20 0.5t-23 1t-18.5 2.5t-21.5 6q-17 8 -35 21q-14 11 -29 13
t-29 -9q-2 -2 -8.5 -17t-17.5 -15h-81z" />
    <glyph glyph-name="Adieresis" unicode="&#xc4;" horiz-adv-x="848" 
d="M787 49q5 -17 -6 -33t-28 -16h-159q-18 0 -24 18l-18 58h-338l-13 -21l-27 -37q-12 -18 -32 -18h-169q-19 0 -26 16t5 33l406 614q14 19 33.5 27t48.5 9v-1h1v1h32h5h6h6h23h26q1 0 3.5 -0.5t9.5 -2t12.5 -5t12 -11t10.5 -17.5zM324 243h177l-58 182zM561 769
q-14 0 -23 10.5t-6 25.5l19 107q3 15 15 25.5t27 10.5h108q14 0 23 -10.5t6 -25.5l-19 -107q-3 -15 -15 -25.5t-27 -10.5h-108zM273 769q-14 0 -23 10.5t-6 25.5l19 107q3 15 15 25.5t27 10.5h108q14 0 23 -10.5t6 -25.5l-19 -107q-3 -15 -15 -25.5t-27 -10.5h-108z" />
    <glyph glyph-name="Aring" unicode="&#xc5;" horiz-adv-x="848" 
d="M787 49q5 -17 -6 -33t-28 -16h-159q-18 0 -24 18l-18 58h-338l-13 -21l-27 -37q-12 -18 -32 -18h-169q-19 0 -26 16t5 33l406 614q14 19 33.5 27t48.5 9v-1h1v1h32h5h6h6q7 0 23 -0.5t26 -0.5h3.5t9.5 -1.5t12.5 -5t12 -11t10.5 -17.5zM324 243h177l-58 182zM479 769
q-49 -2 -84 36q-28 30 -33 70t9 73.5t45 56t69 21.5h1h2h2h1.5h1.5h2h2h1.5h1.5h2h2h1.5h1.5h2h2h2q51 2 86.5 -38t32.5 -95q-3 -53 -40 -89.5t-92 -34.5h-1h-2h-2h-1.5h-1.5h-2h-2h-1.5h-1.5h-2h-2h-2zM452 926q-8 -27 -3 -53q5 -22 24.5 -31.5t40 -1.5t27.5 30q8 26 2 52
v0q-5 22 -25 31.5t-40 1.5t-26 -29z" />
    <glyph glyph-name="AE" unicode="&#xc6;" horiz-adv-x="1254" 
d="M1257 699q10 0 16 -7t4 -16l-24 -132q-2 -10 -10 -17t-18 -7h-568q-9 0 -14 -7t-2 -16l14 -45q7 -20 27 -20h447q10 0 15.5 -6.5t4.5 -16.5l-22 -121q-2 -10 -10 -16.5t-18 -6.5h-358q-9 0 -14.5 -7.5t-2.5 -15.5l13 -41q7 -19 27 -19h400q10 0 15.5 -7t3.5 -17l-24 -137
q-2 -9 -10 -16t-18 -7h-9h-69h-113h-129h-116h-87h-3t-8.5 1t-10.5 2.5t-9.5 6t-6.5 10.5l-18 58h-338l-13 -21l-27 -37q-12 -18 -32 -18h-169q-19 0 -26 16t5 33l406 614q14 19 33.5 27t48.5 9v-1h1v1h27h789zM324 243h177l-58 182z" />
    <glyph glyph-name="Ccedilla" unicode="&#xc7;" horiz-adv-x="689" 
d="M682 701q17 0 26.5 -11.5t6.5 -27.5l-19 -103q-3 -16 -16.5 -27.5t-29.5 -11.5h-337q-10 0 -18 -7t-10 -16l-53 -290q-2 -10 4 -17t16 -7h336q17 0 26.5 -11t6.5 -27l-19 -106q-3 -16 -16.5 -27.5t-30.5 -11.5h-204l-15 -43q-1 -4 1 -8t6 -6q52 -13 76 -37t26 -59.5
t-15 -57.5q-28 -44 -98.5 -58t-130.5 7q-3 1 -10 4q-10 4 -14 14t0 20l8 23q5 13 16 17q12 4 23 -2q20 -12 44 -13.5t40 7.5q18 11 18 31t-22 30q-12 5 -57 14q-12 2 -18 13t-1 23q4 11 24 81h-84q-77 0 -122 53.5t-31 129.5l62 336q14 76 78 129t140 53h387z" />
    <glyph glyph-name="Egrave" unicode="&#xc8;" horiz-adv-x="745" 
d="M748 701q10 0 16 -7t4 -16l-24 -132q-2 -10 -10 -17t-18 -7h-410q-8 0 -9 -8l-13 -72q-1 -8 7 -8h329q10 0 15.5 -6.5t4.5 -16.5l-22 -121q-2 -10 -10 -16.5t-18 -6.5h-330q-8 0 -9 -8l-12 -68q-2 -7 6 -7h410q10 0 15.5 -7t3.5 -17l-24 -137q-2 -9 -10 -16t-18 -7h-590
q-16 0 -25.5 11.5t-6.5 27.5l112 623q3 16 16.5 27.5t30.5 11.5h589zM413 810l-133 157q-8 9 -3 19t16 10h153q30 0 45 -27l84 -152q5 -9 0 -17.5t-15 -8.5h-107q-24 0 -40 19z" />
    <glyph glyph-name="Eacute" unicode="&#xc9;" horiz-adv-x="745" 
d="M748 701q10 0 16 -7t4 -16l-24 -132q-2 -10 -10 -17t-18 -7h-410q-8 0 -9 -8l-13 -72q-1 -8 7 -8h329q10 0 15.5 -6.5t4.5 -16.5l-22 -121q-2 -10 -10 -16.5t-18 -6.5h-330q-8 0 -9 -8l-12 -68q-2 -7 6 -7h410q10 0 15.5 -7t3.5 -17l-24 -137q-2 -9 -10 -16t-18 -7h-590
q-16 0 -25.5 11.5t-6.5 27.5l112 623q3 16 16.5 27.5t30.5 11.5h589zM354 791q-10 0 -15 9.5t1 17.5l106 158q14 20 39 20h165q12 0 16.5 -10.5t-3.5 -19.5l-156 -161l-4.5 -4.5t-5.5 -3.5t-5 -2.5t-5.5 -2t-5.5 -1t-6 -0.5h-5.5h-6h-5.5h-104z" />
    <glyph glyph-name="Ecircumflex" unicode="&#xca;" horiz-adv-x="745" 
d="M748 701q10 0 16 -7t4 -16l-24 -132q-2 -10 -10 -17t-18 -7h-410q-8 0 -9 -8l-13 -72q-1 -8 7 -8h329q10 0 15.5 -6.5t4.5 -16.5l-22 -121q-2 -10 -10 -16.5t-18 -6.5h-330q-8 0 -9 -8l-12 -68q-2 -7 6 -7h410q10 0 15.5 -7t3.5 -17l-24 -137q-2 -9 -10 -16t-18 -7h-590
q-16 0 -25.5 11.5t-6.5 27.5l112 623q3 16 16.5 27.5t30.5 11.5h589zM274 794q-11 0 -15.5 10.5t2.5 19.5l122 133q27 30 75 30h89q21 0 34 -17l117 -147q7 -9 2 -19t-16 -10h-15h-51h-50q-25 0 -41 20l-39 49l-50 -54q-14 -15 -35 -15h-129z" />
    <glyph glyph-name="Edieresis" unicode="&#xcb;" horiz-adv-x="745" 
d="M748 701q10 0 16 -7t4 -16l-24 -132q-2 -10 -10 -17t-18 -7h-410q-8 0 -9 -8l-13 -72q-1 -8 7 -8h329q10 0 15.5 -6.5t4.5 -16.5l-22 -121q-2 -10 -10 -16.5t-18 -6.5h-330q-8 0 -9 -8l-12 -68q-2 -7 6 -7h410q10 0 15.5 -7t3.5 -17l-24 -137q-2 -9 -10 -16t-18 -7h-590
q-16 0 -25.5 11.5t-6.5 27.5l112 623q3 16 16.5 27.5t30.5 11.5h589zM556 771q-15 0 -23.5 10.5t-6.5 25.5l19 107q3 15 15 25.5t27 10.5h108q15 0 23.5 -10.5t5.5 -25.5l-19 -107q-2 -15 -14.5 -25.5t-27.5 -10.5h-107zM268 771q-15 0 -23.5 10.5t-6.5 25.5l19 107
q3 15 15 25.5t27 10.5h108q15 0 23.5 -10.5t5.5 -25.5l-19 -107q-2 -15 -14.5 -25.5t-27.5 -10.5h-107z" />
    <glyph glyph-name="Igrave" unicode="&#xcc;" horiz-adv-x="323" 
d="M291 700q16 0 25.5 -11.5t6.5 -27.5l-112 -622q-3 -16 -16.5 -27.5t-30.5 -11.5h-132q-16 0 -25.5 11.5t-6.5 27.5l112 622q3 16 16.5 27.5t30.5 11.5h132zM397 816q5 -9 0 -17.5t-15 -8.5h-107q-24 0 -40 18l-133 158q-7 9 -2.5 19t16.5 10h152q30 0 45 -27z" />
    <glyph glyph-name="Iacute" unicode="&#xcd;" horiz-adv-x="324" 
d="M291 700q16 0 25.5 -11.5t6.5 -27.5l-112 -622q-3 -16 -16.5 -27.5t-30.5 -11.5h-132q-16 0 -25.5 11.5t-6.5 27.5l112 622q3 16 16.5 27.5t30.5 11.5h132zM447 984.5q5 -10.5 -3 -19.5l-156 -161q-3 -3 -5.5 -5t-5.5 -3.5l-5 -2.5t-5.5 -1.5t-5 -1t-6 -0.5t-5.5 -0.5
t-6 0t-6 0.5h-103q-11 0 -16 9t1 18l106 157q14 21 39 21h166q11 0 16 -10.5z" />
    <glyph glyph-name="Icircumflex" unicode="&#xce;" horiz-adv-x="325" 
d="M291 700q16 0 25.5 -11.5t6.5 -27.5l-112 -622q-3 -16 -16.5 -27.5t-30.5 -11.5h-132q-16 0 -25.5 11.5t-6.5 27.5l112 622q3 16 16.5 27.5t30.5 11.5h132zM468 821q7 -8 2 -18t-16 -10h-14h-52h-50q-25 0 -41 19l-39 49l-50 -53q-14 -15 -35 -15h-128q-12 0 -16.5 10.5
t3.5 18.5l121 134q27 29 75 29h90q20 0 33 -16z" />
    <glyph glyph-name="Idieresis" unicode="&#xcf;" horiz-adv-x="326" 
d="M291 700q16 0 25.5 -11.5t6.5 -27.5l-112 -622q-3 -16 -16.5 -27.5t-30.5 -11.5h-132q-16 0 -25.5 11.5t-6.5 27.5l112 622q3 16 16.5 27.5t30.5 11.5h132zM465 949q15 0 23.5 -10.5t6.5 -25.5l-20 -108q-2 -14 -14.5 -24.5t-27.5 -10.5h-107q-15 0 -23.5 10t-6.5 25
l19 108q3 15 15.5 25.5t26.5 10.5h108zM38 770q-15 0 -23.5 10t-6.5 25l19 108q3 15 15.5 25.5t27.5 10.5h107q15 0 23.5 -10.5t6.5 -25.5l-19 -108q-3 -14 -15.5 -24.5t-27.5 -10.5h-107z" />
    <glyph glyph-name="Eth" unicode="&#xd0;" horiz-adv-x="830" 
d="M663 701q76 0 121 -53.5t31 -129.5l-61 -336q-13 -75 -77 -128.5t-141 -53.5h-468q-16 0 -25.5 11.5t-6.5 27.5l44 247h-33q-16 0 -24.5 10.5t-6.5 26.5l10 55q3 15 15.5 26t27.5 11h34l45 247q3 16 16.5 27.5t30.5 11.5h468zM600 497q1 10 -4.5 16.5t-15.5 6.5h-222
q-10 0 -18 -6.5t-10 -16.5l-15 -82h108q15 0 24 -11t6 -26l-9 -55q-3 -16 -15.5 -26.5t-28.5 -10.5h-108l-15 -80q-1 -9 4.5 -16t15.5 -7h222q10 0 18 7t10 16z" />
    <glyph glyph-name="Ntilde" unicode="&#xd1;" horiz-adv-x="837" 
d="M805 699q17 0 26.5 -11t6.5 -28l-112 -621q-3 -16 -17 -27.5t-30 -11.5h-145q-18 0 -27 14l-216 378q-4 6 -10.5 5t-7.5 -8l-63 -350q-3 -16 -16.5 -27.5t-30.5 -11.5h-131q-16 0 -25.5 11.5t-6.5 27.5l112 622q3 16 16.5 27t30.5 11h167q18 0 27 -13l198 -352
q4 -6 10.5 -5t7.5 8l59 324q3 16 16.5 27t29.5 11h131zM311 812q-8 0 -13.5 5.5t-4.5 13.5q6 67 39 104q22 25 59.5 34.5t68.5 6.5t49 -11q4 -2 8 -4.5t9 -5t8 -4.5l10.5 -7t11.5 -7q27 -14 45 7q2 3 5.5 11t7.5 12.5t12 4.5h82q7 0 12.5 -5.5t4.5 -12.5v-4
q-3 -59 -38.5 -100.5t-92.5 -39.5h-20.5t-23 0.5t-18.5 3t-21 5.5q-18 8 -36 22q-13 10 -28 12.5t-29 -9.5q-2 -2 -9 -17t-18 -15h-80z" />
    <glyph glyph-name="Ograve" unicode="&#xd2;" 
d="M699 702q77 0 122 -53.5t31 -129.5l-61 -336q-14 -76 -78 -129.5t-141 -53.5h-403q-77 0 -122 53.5t-31 129.5l61 336q13 76 77.5 129.5t141.5 53.5h403zM636 498q2 10 -4 16.5t-15 6.5h-304q-10 0 -18.5 -6.5t-9.5 -16.5l-53 -291q-2 -10 4 -17t15 -7h304q10 0 18.5 7
t9.5 17zM475 811l-133 157q-7 9 -2.5 19t16.5 10h152q30 0 45 -27l85 -152q4 -9 -1 -17.5t-15 -8.5h-107q-24 0 -40 19z" />
    <glyph glyph-name="Oacute" unicode="&#xd3;" 
d="M699 702q77 0 122 -53.5t31 -129.5l-61 -336q-14 -76 -78 -129.5t-141 -53.5h-403q-77 0 -122 53.5t-31 129.5l61 336q13 76 77.5 129.5t141.5 53.5h403zM636 498q2 10 -4 16.5t-15 6.5h-304q-10 0 -18.5 -6.5t-9.5 -16.5l-53 -291q-2 -10 4 -17t15 -7h304q10 0 18.5 7
t9.5 17zM437 792q-10 0 -15 9t1 18l106 158q14 20 39 20h165q12 0 16.5 -10.5t-3.5 -19.5l-156 -161l-4.5 -4.5t-5.5 -4t-5.5 -2.5t-6 -1.5t-5 -1t-5.5 -0.5h-5.5h-6.5h-6h-103z" />
    <glyph glyph-name="Ocircumflex" unicode="&#xd4;" 
d="M699 702q77 0 122 -53.5t31 -129.5l-61 -336q-14 -76 -78 -129.5t-141 -53.5h-403q-77 0 -122 53.5t-31 129.5l61 336q13 76 77.5 129.5t141.5 53.5h403zM636 498q2 10 -4 16.5t-15 6.5h-304q-10 0 -18.5 -6.5t-9.5 -16.5l-53 -291q-2 -10 4 -17t15 -7h304q10 0 18.5 7
t9.5 17zM313 795q-12 0 -16.5 10.5t3.5 18.5l121 134q27 29 75 29h90q20 0 33 -16l117 -147q7 -9 2 -19t-16 -10h-14h-52h-50q-25 0 -41 20l-39 49l-50 -54q-14 -15 -35 -15h-128z" />
    <glyph glyph-name="Otilde" unicode="&#xd5;" 
d="M699 702q77 0 122 -53.5t31 -129.5l-61 -336q-14 -76 -78 -129.5t-141 -53.5h-403q-77 0 -122 53.5t-31 129.5l61 336q13 76 77.5 129.5t141.5 53.5h403zM636 498q2 10 -4 16.5t-15 6.5h-304q-10 0 -18.5 -6.5t-9.5 -16.5l-53 -291q-2 -10 4 -17t15 -7h304q10 0 18.5 7
t9.5 17zM327 815q-7 0 -12.5 5.5t-4.5 13.5q6 67 39 104q22 25 59.5 34.5t68 6.5t48.5 -12l8 -4t9 -5t8 -4q4 -2 11 -7t12 -8q27 -13 44 7q3 4 6 12t7.5 12.5t11.5 4.5h82q8 0 13 -5.5t5 -13.5v-3q-4 -60 -39 -101.5t-93 -39.5q-3 0 -19.5 0.5t-23 1t-18.5 2.5t-21 6
q-18 8 -36 21q-14 11 -29 13t-29 -9q-2 -2 -8.5 -17t-17.5 -15h-81z" />
    <glyph glyph-name="Odieresis" unicode="&#xd6;" 
d="M699 702q77 0 122 -53.5t31 -129.5l-61 -336q-14 -76 -78 -129.5t-141 -53.5h-403q-77 0 -122 53.5t-31 129.5l61 336q13 76 77.5 129.5t141.5 53.5h403zM636 498q2 10 -4 16.5t-15 6.5h-304q-10 0 -18.5 -6.5t-9.5 -16.5l-53 -291q-2 -10 4 -17t15 -7h304q10 0 18.5 7
t9.5 17zM603 772q-15 0 -23.5 10.5t-6.5 25.5l19 107q3 15 15 25.5t27 10.5h108q15 0 23.5 -10.5t5.5 -25.5l-19 -107q-2 -15 -14.5 -25.5t-27.5 -10.5h-107zM315 772q-15 0 -23.5 10.5t-6.5 25.5l19 107q3 15 15.5 25.5t26.5 10.5h108q15 0 23.5 -10.5t5.5 -25.5l-19 -107
q-2 -15 -14.5 -25.5t-27.5 -10.5h-107z" />
    <glyph glyph-name="multiply" unicode="&#xd7;" horiz-adv-x="584" 
d="M565 523q10 -12 7 -29.5t-17 -29.5l-135 -115l94 -114q10 -12 7 -29.5t-17 -29.5l-82 -70q-14 -12 -31.5 -12t-27.5 12l-94 115l-135 -115q-14 -12 -31.5 -12t-27.5 12l-57 70q-10 12 -7 29.5t17 29.5l135 114l-95 115q-10 12 -7 29.5t18 29.5l82 69q14 13 31.5 13
t27.5 -13l94 -114l135 114q14 13 31.5 13t27.5 -13z" />
    <glyph glyph-name="Oslash" unicode="&#xd8;" 
d="M699 702q77 0 122 -53.5t31 -129.5l-61 -336q-14 -76 -78 -129.5t-141 -53.5h-403q-77 0 -122 53.5t-31 129.5l61 336q13 76 77.5 129.5t141.5 53.5h403zM285 498l-49 -271l327 294h-250q-10 0 -18.5 -6.5t-9.5 -16.5zM583 207l49 267l-324 -291h247q10 0 18.5 7t9.5 17z
" />
    <glyph glyph-name="Ugrave" unicode="&#xd9;" horiz-adv-x="836" 
d="M427 810l-133 158q-7 9 -2.5 19t15.5 10h153q30 0 45 -27l84 -152q5 -9 0 -17.5t-15 -8.5h-107q-24 0 -40 18zM809 702q16 0 25.5 -11.5t6.5 -27.5l-86 -481q-14 -75 -78 -128.5t-141 -53.5h-20h-1l-343 1q-77 0 -121.5 53.5t-30.5 128.5l87 480q3 16 16.5 27.5
t29.5 11.5h126q16 0 25.5 -11.5t6.5 -27.5l-82 -455q-2 -10 3.5 -17t15.5 -7h276q10 0 18.5 7t9.5 17l82 455q3 16 17 27.5t30 11.5h128z" />
    <glyph glyph-name="Uacute" unicode="&#xda;" horiz-adv-x="836" 
d="M809 702q16 0 25.5 -11.5t6.5 -27.5l-86 -481q-14 -75 -78 -128.5t-141 -53.5h-20h-1l-343 1q-77 0 -121.5 53.5t-30.5 128.5l87 480q3 16 16.5 27.5t29.5 11.5h126q16 0 25.5 -11.5t6.5 -27.5l-82 -455q-2 -10 3.5 -16.5t15.5 -6.5h276q10 0 18.5 6.5t9.5 16.5l82 455
q3 16 17 27.5t30 11.5h128zM393 792q-10 0 -15 9t1 18l106 157q14 21 39 21h165q12 0 16.5 -10.5t-3.5 -19.5l-156 -161q-2 -3 -4.5 -5t-5.5 -3.5l-5 -2.5t-6 -1.5t-5.5 -1t-5.5 -0.5t-5.5 -0.5t-6.5 0t-6 0.5h-103z" />
    <glyph glyph-name="Ucircumflex" unicode="&#xdb;" horiz-adv-x="836" 
d="M307 795q-11 0 -16 10.5t3 18.5l122 134q27 29 74 29h90q21 0 34 -16l116 -148q7 -8 2.5 -18t-16.5 -10h-14h-52h-50q-24 0 -40 19l-40 49l-49 -53q-14 -15 -35 -15h-129zM809 702q16 0 25.5 -11.5t6.5 -27.5l-86 -481q-14 -75 -78 -128.5t-141 -53.5h-20h-1l-343 1
q-77 0 -121.5 53.5t-30.5 128.5l87 480q3 16 16.5 27.5t29.5 11.5h126q16 0 25.5 -11.5t6.5 -27.5l-82 -455q-2 -10 3.5 -17t15.5 -7h276q10 0 18.5 7t9.5 17l82 455q3 16 17 27.5t30 11.5h128z" />
    <glyph glyph-name="Udieresis" unicode="&#xdc;" horiz-adv-x="836" 
d="M809 702q16 0 25.5 -11.5t6.5 -27.5l-86 -481q-14 -75 -78 -128.5t-141 -53.5h-20h-1l-343 1q-77 0 -121.5 53.5t-30.5 128.5l87 480q3 16 16.5 27.5t29.5 11.5h126q16 0 25.5 -11.5t6.5 -27.5l-82 -455q-2 -10 3.5 -16.5t15.5 -6.5h276q10 0 18.5 6.5t9.5 16.5l82 455
q3 16 17 27.5t30 11.5h128zM578 772q-14 0 -23 10.5t-6 24.5l19 108q3 15 15 25.5t27 10.5h108q14 0 23 -10.5t6 -25.5l-19 -108q-3 -14 -15 -24.5t-27 -10.5h-108zM290 772q-14 0 -23 10.5t-6 24.5l19 108q3 15 15 25.5t27 10.5h108q14 0 23 -10.5t6 -25.5l-19 -108
q-3 -14 -15 -24.5t-27 -10.5h-108z" />
    <glyph glyph-name="Yacute" unicode="&#xdd;" horiz-adv-x="717" 
d="M340 790q-11 0 -16 9t1 18l106 157q14 21 39 21h166q11 0 15.5 -10.5t-3.5 -19.5l-155 -161q-3 -2 -5.5 -4.5t-5.5 -4l-5 -2.5t-5.5 -1.5t-5 -1t-6 -0.5h-5.5h-6h-6h-103zM756 700q14 0 18.5 -12t-4.5 -23l-318 -408q-7 -16 -9 -19l-36 -199q-3 -16 -16.5 -27.5
t-29.5 -11.5h-132q-17 0 -26.5 11.5t-6.5 27.5l36 199q-1 10 -2 21l-170 406q-5 11 4 23t22 12h168q22 0 30 -19l87 -207q2 -5 7.5 -6t9.5 4l163 209q15 19 38 19h167z" />
    <glyph glyph-name="Thorn" unicode="&#xde;" horiz-adv-x="709" 
d="M548 536q72 0 114 -50.5t29 -120.5l-10 -59q-13 -70 -72.5 -119.5t-130.5 -49.5h-262l-18 -97q-3 -17 -17 -28.5t-31 -11.5h-119q-17 0 -27.5 12.5t-7.5 29.5l118 615q3 17 17 28.5t31 11.5h119q17 0 27.5 -12.5t7.5 -29.5l-23 -119h255zM491 330l6 29q1 6 -2.5 10
t-9.5 4h-53q-60 0 -100.5 36.5t-44.5 92.5l-37 -188h222q7 0 12.5 4.5t6.5 11.5z" />
    <glyph glyph-name="germandbls" unicode="&#xdf;" horiz-adv-x="808" 
d="M626 400q73 0 115 -50.5t29 -121.5l-11 -59q-12 -70 -71.5 -119.5t-131.5 -49.5h-263q-18 0 -28.5 12.5t-7.5 29.5l17 95q4 17 17.5 28.5t30.5 11.5h228q7 0 12.5 5t7.5 11l5 30q1 6 -2.5 10t-9.5 4h-53q-72 0 -114 50t-30 121l19 104q1 6 -3 11t-10 5h-64q-6 0 -11.5 -5
t-7.5 -11l-81 -469q-3 -19 -17.5 -31t-33.5 -12h-116q-17 0 -28 13t-8 30l85 491q13 70 72.5 119.5t130.5 49.5h194q49 0 80.5 -37.5t22.5 -85.5q0 -4 -9 -52l-20 -114q-1 -6 2.5 -10t9.5 -4h53z" />
    <glyph glyph-name="agrave" unicode="&#xe0;" horiz-adv-x="782" 
d="M377 749l-120 142q-7 8 -2.5 17.5t14.5 9.5h137q27 0 41 -25l76 -137q4 -8 -0.5 -15.5t-13.5 -7.5h-96q-22 0 -36 16zM724 52q6 -18 -6 -35t-30 -17h-144q-21 0 -27 20l-15 48h-296l-11 -16l-23 -34q-14 -18 -35 -18h-152q-20 0 -28 18t5 35l364 553q16 21 36 27.5
t50 7.5h43.5h40.5q12 0 26.5 -8.5t20.5 -27.5zM312 231h140l-45 143z" />
    <glyph glyph-name="aacute" unicode="&#xe1;" horiz-adv-x="782" 
d="M724 52q6 -18 -6 -35t-30 -17h-144q-21 0 -27 20l-15 48h-296l-11 -16l-23 -34q-14 -18 -35 -18h-152q-20 0 -28 18t5 35l364 553q16 21 36 27.5t50 7.5h43.5h40.5q12 0 26.5 -8.5t20.5 -27.5zM312 231h140l-45 143zM400 733q-9 0 -13.5 8t0.5 16l96 142q12 19 35 19h149
q10 0 14.5 -10t-3.5 -17l-140 -145q-6 -7 -15 -10t-12.5 -3h-17.5h-93z" />
    <glyph glyph-name="acircumflex" unicode="&#xe2;" horiz-adv-x="782" 
d="M273 735q-10 0 -14 9.5t3 17.5l109 120q24 26 68 26h80q19 0 30 -14l105 -133q7 -8 2.5 -17t-14.5 -9h-13h-47h-45q-22 0 -36 18l-35 44l-45 -48q-13 -14 -32 -14h-116zM724 52q6 -18 -6 -35t-30 -17h-144q-21 0 -27 20l-15 48h-296l-11 -16l-23 -34q-14 -18 -35 -18
h-152q-20 0 -28 18t5 35l364 553q16 21 36 27.5t50 7.5h43.5h40.5q12 0 26.5 -8.5t20.5 -27.5zM312 231h140l-45 143z" />
    <glyph glyph-name="atilde" unicode="&#xe3;" horiz-adv-x="782" 
d="M724 52q6 -18 -6 -35t-30 -17h-144q-21 0 -27 20l-15 48h-296l-11 -16l-23 -34q-14 -18 -35 -18h-152q-20 0 -28 18t5 35l364 553q16 21 36 27.5t50 7.5h43.5h40.5q12 0 26.5 -8.5t20.5 -27.5zM312 231h140l-45 143zM289 753q-7 0 -11.5 5.5t-3.5 11.5q5 61 35 94
q20 22 53.5 31t61.5 6t44 -10q3 -2 7 -4t8 -4.5t7 -3.5q3 -2 9.5 -7t10.5 -6q25 -12 40 6q3 3 6 10t6.5 11.5t10.5 4.5h74q7 0 11.5 -5t4.5 -12l-1 -3q-3 -54 -34.5 -91t-83.5 -36q-3 0 -18 0.5t-21 1t-16.5 2t-18.5 5.5q-16 7 -32 19q-13 10 -26.5 11.5t-25.5 -8.5
q-2 -1 -8 -15t-16 -14h-73z" />
    <glyph glyph-name="adieresis" unicode="&#xe4;" horiz-adv-x="782" 
d="M724 52q6 -18 -6 -35t-30 -17h-144q-21 0 -27 20l-15 48h-296l-11 -16l-23 -34q-14 -18 -35 -18h-152q-20 0 -28 18t5 35l364 553q16 21 36 27.5t50 7.5h43.5h40.5q12 0 26.5 -8.5t20.5 -27.5zM312 231h140l-45 143zM517 710q-14 0 -22 10t-5 24l18 101q2 14 13.5 23.5
t25.5 9.5h101q14 0 22 -9.5t6 -23.5l-18 -101q-3 -14 -14.5 -24t-25.5 -10h-101zM247 710q-14 0 -22 10t-5 24l17 101q3 14 14.5 23.5t25.5 9.5h101q14 0 22 -9.5t5 -23.5l-17 -101q-3 -14 -14.5 -24t-25.5 -10h-101z" />
    <glyph glyph-name="aring" unicode="&#xe5;" horiz-adv-x="782" 
d="M724 52q6 -18 -6 -35t-30 -17h-144q-21 0 -27 20l-15 48h-296l-11 -16l-23 -34q-14 -18 -35 -18h-152q-20 0 -28 18t5 35l364 553q16 21 36 27.5t50 7.5h43.5h40.5q12 0 26.5 -8.5t20.5 -27.5zM312 231h140l-45 143zM442 715q-44 -1 -76 33q-25 27 -29.5 63t8 66
t40.5 50.5t62 19.5h1h2h2h1.5h1.5h1.5h1.5h1.5h1.5h1.5h1.5h1.5h1.5h2h2h1q46 1 78 -35t29 -85q-3 -48 -36 -80.5t-82 -31.5h-1h-2h-2h-1.5h-1.5h-1.5h-1.5h-1.5h-1.5h-1.5h-2h-1.5zM417 856q-7 -24 -2 -47q4 -20 22 -28.5t36 -1t24 26.5q7 24 2 47q-4 20 -22 28.5t-36 1.5
t-24 -27z" />
    <glyph glyph-name="ae" unicode="&#xe6;" horiz-adv-x="1122" 
d="M1114 643q12 0 19 -8.5t5 -19.5l-22 -119q-1 -11 -10.5 -18.5t-20.5 -7.5h-498l23 -71l1 4h388q12 0 19 -8t4 -20l-19 -109q-2 -11 -11 -18.5t-20 -7.5h-310l21 -63l347 1q12 0 19 -8.5t5 -20.5l-22 -123q-2 -11 -11 -18.5t-21 -7.5h-448h-8q-21 0 -27 20l-15 48h-296
l-11 -16l-23 -34q-14 -18 -35 -18h-152q-20 0 -28 18t5 35l364 553q16 21 36 27.5t50 7.5h25v2h677zM312 231h140l-45 143z" />
    <glyph glyph-name="ccedilla" unicode="&#xe7;" horiz-adv-x="641" 
d="M623 643q18 0 28.5 -12.5t7.5 -29.5l-17 -93q-3 -17 -17 -28.5t-31 -11.5h-303q-7 0 -12.5 -4.5t-6.5 -11.5l-48 -261q-1 -6 2.5 -10t9.5 -4h303q18 0 28 -12.5t7 -29.5l-17 -95q-3 -17 -17 -28.5t-31 -11.5h-180l-14 -41q-1 -4 1 -7.5t6 -4.5q46 -12 68 -33
q22 -22 23.5 -54t-13.5 -52q-25 -40 -88.5 -52.5t-117.5 6.5l-9 3q-9 4 -13 13t0 18l8 21q4 11 14 15t20 -2q19 -10 40 -11.5t36 6.5q16 10 16 28t-20 27q-11 5 -51 13q-10 2 -15.5 11.5t-1.5 20.5q3 10 22 75h-80q-72 0 -114 50.5t-29 121.5l56 302q12 70 71.5 119.5
t130.5 49.5h348z" />
    <glyph glyph-name="egrave" unicode="&#xe8;" horiz-adv-x="691" 
d="M388 749l-120 142q-6 8 -2 17.5t15 9.5h137q27 0 40 -25l76 -137q5 -8 0 -15.5t-14 -7.5h-96q-21 0 -36 16zM684 643q11 0 18 -8.5t5 -19.5l-21 -119q-2 -11 -11 -18.5t-21 -7.5h-368q-2 0 -3 -2l-11 -65h296q12 0 19 -8t5 -20l-20 -109q-2 -11 -11 -18.5t-20 -7.5h-297
q-2 0 -2 -2l-11 -61h368q12 0 19 -8t5 -20l-22 -123q-2 -11 -11 -18.5t-20 -7.5h-531q-18 0 -28 12.5t-7 29.5l101 561q3 17 17 28.5t31 11.5h531z" />
    <glyph glyph-name="eacute" unicode="&#xe9;" horiz-adv-x="691" 
d="M352 733q-10 0 -14.5 8t1.5 16l95 142q13 19 35 19h149q11 0 15 -10t-4 -17l-140 -145q-6 -7 -15 -10t-12.5 -3h-16.5h-93zM684 643q11 0 18 -8.5t5 -19.5l-21 -119q-2 -11 -11 -18.5t-21 -7.5h-368q-2 0 -3 -2l-11 -65h296q12 0 19 -8t5 -20l-20 -109q-2 -11 -11 -18.5
t-20 -7.5h-297q-2 0 -2 -2l-11 -61l368 1q12 0 19 -8.5t5 -20.5l-22 -123q-2 -11 -11 -18.5t-20 -7.5h-531q-18 0 -28 12.5t-7 29.5l101 561q3 17 17 28.5t31 11.5h531z" />
    <glyph glyph-name="ecircumflex" unicode="&#xea;" horiz-adv-x="691" 
d="M258 735q-11 0 -15 9.5t3 17.5l109 120q24 26 68 26h80q19 0 30 -14l105 -133q7 -8 2.5 -17t-14.5 -9h-13h-47h-44q-23 0 -37 18l-35 44l-45 -48q-13 -14 -32 -14h-115zM684 643q11 0 18 -8.5t5 -19.5l-21 -119q-2 -11 -11 -18.5t-21 -7.5h-368q-2 0 -3 -2l-11 -65h296
q12 0 19 -8t5 -20l-20 -109q-2 -11 -11 -18.5t-20 -7.5h-297q-2 0 -2 -2l-11 -61l368 1q12 0 19 -8.5t5 -20.5l-22 -123q-2 -11 -11 -18.5t-20 -7.5h-531q-18 0 -28 12.5t-7 29.5l101 561q3 17 17 28.5t31 11.5h531z" />
    <glyph glyph-name="edieresis" unicode="&#xeb;" horiz-adv-x="691" 
d="M684 643q11 0 18 -8.5t5 -19.5l-21 -119q-2 -11 -11 -18.5t-20 -7.5h-369q-2 0 -3 -2l-11 -65h296q12 0 19 -8t5 -20l-20 -109q-2 -11 -11 -18.5t-20 -7.5h-297q-2 0 -2 -2l-11 -61h368q12 0 19 -8t5 -20l-22 -123q-2 -11 -11 -18.5t-20 -7.5h-531q-18 0 -28 12.5
t-7 29.5l101 561q3 17 17 28.5t31 11.5h531zM511 710q-13 0 -21.5 10t-5.5 24l18 101q2 14 13.5 23.5t25.5 9.5h101q14 0 22 -9.5t6 -23.5l-18 -101q-3 -14 -14.5 -24t-25.5 -10h-101zM241 710q-14 0 -22 10t-5 24l17 101q3 14 14.5 23.5t25.5 9.5h101q14 0 22 -9.5t6 -23.5
l-18 -101q-3 -14 -14.5 -24t-25.5 -10h-101z" />
    <glyph glyph-name="igrave" unicode="&#xec;" horiz-adv-x="313" 
d="M272 642q17 0 27.5 -12.5t7.5 -29.5l-101 -560q-3 -17 -17 -28.5t-31 -11.5h-119q-18 0 -28 12.5t-7 29.5l101 560q3 17 17 28.5t31 11.5h119zM370 756q5 -8 0 -15.5t-14 -7.5h-96q-21 0 -36 16l-120 142q-6 8 -2 17.5t14 9.5h138q27 0 40 -25z" />
    <glyph glyph-name="iacute" unicode="&#xed;" horiz-adv-x="314" 
d="M272 642q17 0 27.5 -12.5t7.5 -29.5l-101 -560q-3 -17 -17 -28.5t-31 -11.5h-119q-18 0 -28 12.5t-7 29.5l101 560q3 17 17 28.5t31 11.5h119zM424.5 908q4.5 -10 -3.5 -17l-140 -145q-6 -7 -15 -10t-12.5 -3h-17.5h-93q-9 0 -13.5 8t0.5 16l96 142q12 19 35 19h149
q10 0 14.5 -10z" />
    <glyph glyph-name="icircumflex" unicode="&#xee;" horiz-adv-x="314" 
d="M272 642q17 0 27.5 -12.5t7.5 -29.5l-101 -560q-3 -17 -17 -28.5t-31 -11.5h-119q-18 0 -28 12.5t-7 29.5l101 560q3 17 17 28.5t31 11.5h119zM424 761q6 -8 2 -17t-14 -9h-13h-47h-45q-22 0 -36 18l-36 44l-44 -48q-13 -14 -32 -14h-116q-10 0 -14.5 9.5t2.5 17.5
l110 120q24 26 67 26h81q18 0 30 -14z" />
    <glyph glyph-name="idieresis" unicode="&#xef;" horiz-adv-x="314" 
d="M272 642q17 0 27.5 -12.5t7.5 -29.5l-101 -560q-3 -17 -17 -28.5t-31 -11.5h-119q-18 0 -28 12.5t-7 29.5l101 560q3 17 17 28.5t31 11.5h119zM447 878q14 0 22 -9.5t6 -23.5l-18 -101q-3 -14 -14.5 -24t-25.5 -10h-100q-14 0 -22.5 10t-5.5 24l18 101q2 14 13.5 23.5
t25.5 9.5h101zM46 710q-14 0 -22 10t-5 24l17 101q3 14 14.5 23.5t25.5 9.5h101q14 0 22 -9.5t6 -23.5l-18 -101q-3 -14 -14.5 -24t-25.5 -10h-101z" />
    <glyph glyph-name="eth" unicode="&#xf0;" horiz-adv-x="756" 
d="M585 642q73 0 114.5 -50t29.5 -121q-1 -4 -7.5 -54.5t-13 -102t-13 -99.5t-8.5 -55q-12 -66 -67.5 -112.5t-122.5 -46.5h-360q-67 0 -104 46.5t-23 112.5q2 7 4 16l-2 -1l12 67q13 71 68.5 117t126.5 46h37h158h74q22 0 32 29q9 28 -9 37q-4 1 -9 1h-110q-1 0 -6 -20
q-3 -12 -13.5 -19t-22.5 -6l-43 4q-12 2 -18.5 10.5t-3.5 20.5q3 9 3 10h-107q-45 0 -73.5 34.5t-21.5 78.5l4 17q2 17 16.5 28.5t30.5 11.5h196q6 22 19 71q3 11 13.5 18.5t22.5 5.5l43 -4q12 -1 18.5 -10t2.5 -20q-10 -38 -16 -61h149zM462 176q23 0 32 29q10 28 -8 37
q-4 1 -9 1h-248q-2 0 -3 -1l-11 -66h247z" />
    <glyph glyph-name="ntilde" unicode="&#xf1;" horiz-adv-x="774" 
d="M284 753q-7 0 -12 5.5t-4 11.5q5 61 35 94q20 22 53.5 31t61.5 6.5t44 -10.5q3 -2 7 -4t8.5 -4.5t6.5 -3.5q3 -2 10 -7t11 -6q24 -12 39 6q3 3 6 10t6.5 11.5t10.5 4.5h74q7 0 11.5 -5t4.5 -12v-3q-4 -54 -35.5 -91t-83.5 -36q-3 0 -17.5 0.5t-20.5 1t-17 2t-19 5.5
q-16 7 -32 19q-12 10 -26 11.5t-26 -8.5q-2 -1 -8 -15t-16 -14h-72zM735 642q18 0 28 -12.5t7 -29.5l-101 -560q-3 -17 -17 -28.5t-31 -11.5h-130q-20 0 -30 15l-194 341q-1 2 -3 1q-2 0 -2 -1v-1l-57 -315q-3 -17 -17 -28.5t-31 -11.5h-118q-18 0 -28 12.5t-7 29.5l101 560
q3 17 17 28.5t31 11.5h150q20 0 30 -15l179 -317q1 -2 2 -1q2 0 2 2l53 291q3 17 17 28.5t31 11.5h118z" />
    <glyph glyph-name="ograve" unicode="&#xf2;" horiz-adv-x="801" 
d="M441 749l-120 142q-7 8 -2.5 17.5t14.5 9.5h137q27 0 41 -25l76 -137q4 -8 -0.5 -15.5t-13.5 -7.5h-97q-21 0 -35 16zM639 644q72 0 114 -50.5t29 -121.5l-55 -303q-12 -70 -71.5 -119.5t-130.5 -49.5h-364q-72 0 -114 50.5t-29 121.5l54 303q13 70 72.5 119.5
t130.5 49.5h364zM529 193l47 262q1 6 -2.5 10t-9.5 4h-273q-7 0 -12.5 -4.5t-6.5 -11.5l-48 -262q-1 -6 2.5 -10t9.5 -4h273q7 0 12.5 5t7.5 11z" />
    <glyph glyph-name="oacute" unicode="&#xf3;" horiz-adv-x="801" 
d="M374 733q-9 0 -13.5 8t0.5 16l95 142q13 19 36 19h148q11 0 15 -10t-3 -17l-140 -145q-7 -7 -15.5 -10t-12.5 -3h-17h-93zM639 644q72 0 114 -50.5t29 -121.5l-55 -303q-12 -70 -71.5 -119.5t-130.5 -49.5h-364q-72 0 -114 50.5t-29 121.5l54 303q13 70 72.5 119.5
t130.5 49.5h364zM529 193l47 262q1 6 -2.5 10t-9.5 4h-273q-7 0 -12.5 -4.5t-6.5 -11.5l-48 -262q-1 -6 2.5 -10t9.5 -4h273q7 0 12.5 5t7.5 11z" />
    <glyph glyph-name="ocircumflex" unicode="&#xf4;" horiz-adv-x="801" 
d="M285 735q-10 0 -14 9.5t3 17.5l109 120q24 26 67 26h81q19 0 30 -14l105 -133q6 -8 2 -17t-14 -9h-13h-47h-45q-22 0 -36 18l-36 44l-44 -48q-13 -14 -32 -14h-116zM639 644q72 0 114 -50.5t29 -121.5l-55 -303q-12 -70 -71.5 -119.5t-130.5 -49.5h-364q-72 0 -114 50.5
t-29 121.5l54 303q13 70 72.5 119.5t130.5 49.5h364zM529 193l47 262q1 6 -2.5 10t-9.5 4h-273q-7 0 -12.5 -4.5t-6.5 -11.5l-48 -262q-1 -6 2.5 -10t9.5 -4h273q7 0 12.5 5t7.5 11z" />
    <glyph glyph-name="otilde" unicode="&#xf5;" horiz-adv-x="801" 
d="M639 644q72 0 114 -50.5t29 -121.5l-55 -303q-12 -70 -71.5 -119.5t-130.5 -49.5h-364q-72 0 -114 50.5t-29 121.5l54 303q13 70 72.5 119.5t130.5 49.5h364zM529 193l47 262q1 6 -2.5 10t-9.5 4h-273q-7 0 -12.5 -4.5t-6.5 -11.5l-48 -262q-1 -6 2.5 -10t9.5 -4h273
q7 0 12.5 5t7.5 11zM311 753q-7 0 -12 5.5t-4 11.5q5 61 35 94q20 22 54 31t61.5 6t43.5 -10q4 -2 7.5 -4t8 -4.5t6.5 -3.5q4 -2 10.5 -7t10.5 -6q24 -12 40 6q2 3 5 10t6.5 11.5t10.5 4.5h74q7 0 11.5 -5t4.5 -12v-3q-3 -54 -35 -91t-84 -36q-3 0 -17.5 0.5t-20.5 1t-17 2
t-19 5.5q-16 7 -32 19q-12 10 -25.5 11.5t-26.5 -8.5q-2 -1 -8 -15t-16 -14h-72z" />
    <glyph glyph-name="odieresis" unicode="&#xf6;" horiz-adv-x="801" 
d="M639 644q72 0 114 -50.5t29 -121.5l-55 -303q-12 -70 -71.5 -119.5t-130.5 -49.5h-364q-72 0 -114 50.5t-29 121.5l54 303q13 70 72.5 119.5t130.5 49.5h364zM528 193l48 262q1 6 -2.5 10t-9.5 4h-273q-7 0 -12.5 -4.5t-6.5 -11.5l-48 -262q-1 -6 2.5 -10t9.5 -4h273
q7 0 12.5 5t6.5 11zM556 710q-14 0 -22 10t-6 24l18 101q3 14 14.5 23.5t25.5 9.5h101q13 0 21.5 -9.5t5.5 -23.5l-18 -101q-2 -14 -13.5 -24t-25.5 -10h-101zM286 710q-14 0 -22 10t-6 24l18 101q2 14 13.5 23.5t25.5 9.5h101q14 0 22 -9.5t6 -23.5l-18 -101
q-2 -14 -14 -24t-25 -10h-101z" />
    <glyph glyph-name="divide" unicode="&#xf7;" horiz-adv-x="643" 
d="M566 336q16 0 24.5 -11t6.5 -26l-10 -55q-2 -15 -15 -26t-28 -11h-156v-4l-19 -110q-3 -16 -16 -26.5t-28 -10.5h-110q-16 0 -24.5 10.5t-6.5 26.5l20 110q0 1 1 4h-157q-15 0 -24 11t-6 26l9 55q3 15 15.5 26t28.5 11h495zM276 403q-15 0 -24 10.5t-6 26.5l19 110
q3 15 15.5 26t28.5 11h110q15 0 24 -11t7 -26l-20 -111q-3 -15 -15.5 -25.5t-27.5 -10.5h-111z" />
    <glyph glyph-name="oslash" unicode="&#xf8;" horiz-adv-x="801" 
d="M639 644q72 0 114 -50.5t29 -121.5l-55 -303q-12 -70 -71.5 -119.5t-130.5 -49.5h-364q-72 0 -114 50.5t-29 121.5l54 303q13 70 72.5 119.5t130.5 49.5h364zM272 453l-34 -187l302 203h-249q-7 0 -12.5 -4.5t-6.5 -11.5zM528 193l40 217l-341 -229q3 -4 9 -4h273
q7 0 12.5 5t6.5 11z" />
    <glyph glyph-name="ugrave" unicode="&#xf9;" horiz-adv-x="773" 
d="M431 749l-119 142q-7 8 -3 17.5t15 9.5h137q27 0 40 -25l76 -137q5 -8 0.5 -15.5t-14.5 -7.5h-96q-21 0 -36 16zM738 644q17 0 27.5 -12.5t7.5 -29.5l-78 -433q-13 -70 -72 -119.5t-131 -49.5h-17h-2l-308 1q-73 0 -114.5 50.5t-28.5 120.5l78 432q3 16 17 28t31 12h113
q17 0 27.5 -12.5t7.5 -29.5l-74 -410q-1 -6 2 -10t9 -4h249q6 0 12 5t7 11l74 410q3 17 17 28.5t31 11.5h115z" />
    <glyph glyph-name="uacute" unicode="&#xfa;" horiz-adv-x="773" 
d="M360 733q-10 0 -14.5 8t1.5 16l95 142q13 19 35 19h149q11 0 15 -10t-3 -17l-141 -145q-6 -7 -15 -10t-12.5 -3h-16.5h-93zM738 644q17 0 27.5 -12.5t7.5 -29.5l-78 -433q-13 -70 -72 -119.5t-131 -49.5h-17h-2l-308 1q-73 0 -114.5 50.5t-28.5 120.5l78 432q3 16 17 28
t31 12h113q17 0 27.5 -12.5t7.5 -29.5l-74 -410q-1 -6 2 -10t9 -4h249q6 0 12 5t7 11l74 410q3 17 17 28.5t31 11.5h115z" />
    <glyph glyph-name="ucircumflex" unicode="&#xfb;" horiz-adv-x="773" 
d="M278 735q-11 0 -15 9.5t3 17.5l109 120q25 26 68 26h80q19 0 31 -14l105 -133q6 -8 1.5 -17t-14.5 -9h-13h-46h-45q-22 0 -37 18l-35 44l-45 -48q-12 -14 -31 -14h-116zM738 644q17 0 27.5 -12.5t7.5 -29.5l-78 -433q-13 -70 -72 -119.5t-131 -49.5h-17h-2l-308 1
q-73 0 -114.5 50.5t-28.5 120.5l78 432q3 16 17 28t31 12h113q17 0 27.5 -12.5t7.5 -29.5l-74 -410q-1 -6 2 -10t9 -4h249q6 0 12 5t7 11l74 410q3 17 17 28.5t31 11.5h115z" />
    <glyph glyph-name="udieresis" unicode="&#xfc;" horiz-adv-x="773" 
d="M738 644q17 0 27.5 -12.5t7.5 -29.5l-78 -433q-13 -70 -72 -119.5t-131 -49.5h-17h-2l-308 1q-73 0 -114.5 50.5t-28.5 120.5l78 432q3 16 17 28t31 12h113q17 0 27.5 -12.5t7.5 -29.5l-74 -410q-1 -6 2 -10t9 -4h249q6 0 12 5t7 11l74 410q3 17 17 28.5t31 11.5h115z
M538 699q-14 0 -22 10t-6 24l18 101q2 14 13.5 23.5t25.5 9.5h101q14 0 22 -9.5t6 -23.5l-18 -101q-2 -14 -14 -24t-25 -10h-101zM267 699q-13 0 -21.5 10t-5.5 24l18 101q2 14 13.5 23.5t25.5 9.5h101q14 0 22 -9.5t6 -23.5l-18 -101q-3 -14 -14.5 -24t-25.5 -10h-101z" />
    <glyph glyph-name="yacute" unicode="&#xfd;" horiz-adv-x="663" 
d="M315 733q-10 0 -14.5 8t1.5 16l95 142q13 19 35 19h149q11 0 15 -10t-3 -17l-140 -145q-7 -7 -16 -10t-12.5 -3h-16.5h-93zM689 642q17 0 22.5 -14t-4.5 -27l-286 -367l-7 -16l-32 -178q-4 -17 -17.5 -28.5t-30.5 -11.5h-119q-18 0 -28.5 12.5t-6.5 29.5l32 178
q-1 9 -2 17l-153 365q-5 13 3 25q10 15 27 15h150q25 0 33 -21l78 -186q1 -1 3 -2q1 0 2 1l147 189q15 19 39 19h150z" />
    <glyph glyph-name="thorn" unicode="&#xfe;" horiz-adv-x="749" 
d="M575 486q72 0 114 -50t29 -121l-26 -143q-12 -70 -71.5 -119.5t-130.5 -49.5h-288q-1 0 -2 -2l-21 -116q-3 -17 -17 -28.5t-31 -11.5h-118q-18 0 -28 12t-7 30l50 278l77 436q3 17 16.5 28.5t30.5 11.5h119q18 0 28 -12t7 -30l-21 -113h290zM511 292q2 11 -4 17
q-6 8 -16 7h-232q-2 0 -2 -2l-26 -142h232q11 0 20 8t11 18z" />
    <glyph glyph-name="ydieresis" unicode="&#xff;" horiz-adv-x="663" 
d="M689 642q17 0 22.5 -14t-4.5 -27l-286 -367l-7 -16l-32 -178q-4 -17 -17.5 -28.5t-30.5 -11.5h-119q-18 0 -28.5 12.5t-6.5 29.5l32 178q-1 10 -2 17l-153 365q-5 13 3 25q10 15 27 15h150q25 0 33 -21l78 -186q1 -1 3 -2q1 0 2 1l147 188q15 20 39 20h150zM478 710
q-14 0 -22 10t-5 24l18 101q2 14 13.5 23.5t25.5 9.5h101q14 0 22 -9.5t6 -23.5l-18 -101q-3 -14 -14.5 -24t-25.5 -10h-101zM208 710q-14 0 -22 10t-5 24l17 101q3 14 14.5 23.5t25.5 9.5h101q14 0 22 -9.5t5 -23.5l-17 -101q-3 -14 -14.5 -24t-25.5 -10h-101z" />
    <glyph glyph-name="dotlessi" unicode="&#x131;" horiz-adv-x="312" 
d="M272 642q17 0 27.5 -12.5t7.5 -29.5l-101 -560q-3 -17 -17 -28.5t-31 -11.5h-119q-18 0 -28 12.5t-7 29.5l101 560q3 17 17 28.5t31 11.5h119z" />
    <glyph glyph-name="OE" unicode="&#x152;" horiz-adv-x="1094" 
d="M1098 701q10 0 15.5 -7t4.5 -16l-24 -132q-2 -10 -10 -17t-18 -7h-359q-8 0 -9 -8l-13 -72q-2 -8 6 -8h279q10 0 15.5 -6.5t3.5 -16.5l-22 -121q-1 -10 -9.5 -16.5t-18.5 -6.5h-278q-8 0 -9 -8l-13 -68q-1 -7 7 -7h359q9 0 15 -7t4 -17l-25 -137q-1 -9 -9.5 -16t-18.5 -7
h-803q-77 0 -122 53.5t-31 129.5l62 336q14 75 78 128.5t140 53.5h803zM426 183l61 337h-174q-10 0 -18 -7t-10 -16l-53 -290q-2 -10 4 -17t16 -7h174z" />
    <glyph glyph-name="oe" unicode="&#x153;" horiz-adv-x="1057" 
d="M1048 643q12 0 19 -8.5t5 -19.5l-22 -119q-1 -11 -10.5 -18.5t-20.5 -7.5h-342q-2 0 -2 -2l-12 -65h270q12 0 19 -8t4 -20l-19 -109q-2 -11 -11 -18.5t-20 -7.5h-271q-2 0 -2 -2l-11 -61l342 1q12 0 19 -8.5t5 -20.5l-22 -123q-2 -11 -11 -18.5t-21 -7.5h-774
q-72 0 -114 50.5t-29 121.5l56 302q12 70 71.5 119.5t130.5 49.5h773zM419 177l53 291h-181q-7 0 -12.5 -4.5t-6.5 -11.5l-48 -261q-1 -6 2.5 -10t9.5 -4h183z" />
    <glyph glyph-name="Scaron" unicode="&#x160;" horiz-adv-x="796" 
d="M378 810l-117 148q-7 8 -2 18t16 10h14h52h50q25 0 41 -19l39 -49l50 53q14 15 35 15h128q12 0 16.5 -10.5t-3.5 -18.5l-121 -134q-27 -29 -75 -29h-90q-20 0 -33 16zM752 700q16 0 25.5 -11.5t6.5 -27.5l-18 -101q-3 -16 -16.5 -27.5t-29.5 -11.5h-428q-10 0 -18 -6.5
t-10 -16.5l-8 -44q-1 -10 4.5 -16.5t15.5 -6.5h316q77 0 121.5 -53.5t30.5 -129.5l-11 -65q-14 -76 -78 -129.5t-141 -53.5h-21h-458q-16 0 -25.5 11.5t-6.5 27.5l19 105q3 17 16.5 28t29.5 11h439q10 0 18.5 7t9.5 17l6 33q2 9 -3.5 16t-15.5 7h-316q-77 0 -121.5 53.5
t-31.5 129.5l13 71q14 76 78 129.5t141 53.5h467z" />
    <glyph glyph-name="scaron" unicode="&#x161;" horiz-adv-x="736" 
d="M362 750l-105 133q-6 7 -1.5 16t14.5 9h13h46h45q22 0 37 -17l35 -44l45 48q12 13 31 13h116q11 0 15 -9.5t-3 -16.5l-109 -120q-25 -27 -68 -27h-80q-19 0 -31 15zM687 642q18 0 28 -12.5t7 -29.5l-16 -91q-3 -17 -17 -28.5t-31 -11.5h-385q-6 0 -12 -4.5t-7 -11.5
l-7 -40q-1 -5 2.5 -9t9.5 -4h284q72 0 114 -50.5t29 -121.5l-10 -59q-13 -70 -72.5 -119.5t-130.5 -49.5h-431q-18 0 -28 12.5t-7 29.5l17 95q3 17 17 28.5t31 11.5h395q7 0 12.5 5t6.5 11l5 30q1 6 -2 10t-9 4h-284q-73 0 -115 50t-29 121l12 64q12 70 71.5 120t131.5 50
h420z" />
    <glyph glyph-name="Ydieresis" unicode="&#x178;" horiz-adv-x="717" 
d="M756 700q14 0 18.5 -12t-4.5 -23l-318 -408q-7 -16 -9 -19l-36 -199q-3 -16 -16.5 -27.5t-29.5 -11.5h-132q-17 0 -26.5 11.5t-6.5 27.5l36 199q-1 10 -2 21l-170 406q-5 11 4 23t22 12h168q22 0 30 -19l87 -207q2 -5 7.5 -6t9.5 4l163 209q15 19 38 19h167zM521 770
q-15 0 -23.5 10.5t-5.5 24.5l19 108q2 15 14.5 25.5t27.5 10.5h107q15 0 23.5 -10.5t6.5 -25.5l-19 -107q-3 -15 -15.5 -25.5t-26.5 -10.5h-108zM233 770q-15 0 -23.5 10.5t-5.5 24.5l19 108q2 15 14.5 25.5t27.5 10.5h107q15 0 23.5 -10.5t6.5 -25.5l-19 -107
q-3 -15 -15.5 -25.5t-26.5 -10.5h-108z" />
    <glyph glyph-name="zcaron" unicode="&#x17e;" horiz-adv-x="700" 
d="M316 750l-105 133q-6 7 -2 16t14 9h13h47h45q22 0 36 -17l36 -44l44 48q13 13 32 13h116q10 0 14.5 -9.5t-2.5 -16.5l-110 -120q-24 -27 -67 -27h-81q-18 0 -30 15zM679 641q18 0 28 -12t7 -30l-14 -79q-9 -48 -52 -79l-326 -263q-2 -1 -2 -2l275 1q18 0 28 -12.5
t7 -29.5l-17 -95q-3 -17 -17 -28.5t-31 -11.5h-548q-18 0 -28 12.5t-7 29.5l15 84q9 48 52 79l330 262q2 1 1 2h-273q-18 0 -28.5 12.5t-7.5 29.5l17 90q3 17 17 28.5t31 11.5h543z" />
    <glyph glyph-name="endash" unicode="&#x2013;" horiz-adv-x="548" 
d="M499 442q15 0 24 -11t6 -26l-19 -111q-3 -15 -16 -26t-28 -11h-418q-15 0 -24 11t-6 26l19 111q3 15 15.5 26t27.5 11h419z" />
    <glyph glyph-name="emdash" unicode="&#x2014;" horiz-adv-x="783" 
d="M734 442q15 0 24 -11t7 -26l-20 -111q-3 -15 -15.5 -26t-27.5 -11h-654q-15 0 -24 11t-6 26l19 111q3 15 15.5 26t27.5 11h654z" />
    <glyph glyph-name="quoteleft" unicode="&#x2018;" horiz-adv-x="226" 
d="M248 802q13 0 20.5 -9t5.5 -22l-34 -191q-3 -17 -17 -29t-31 -12h-91q-20 0 -30 15.5t-2 35.5l75 180q6 14 19 23t27 9h58z" />
    <glyph glyph-name="quoteright" unicode="&#x2019;" horiz-adv-x="209" 
d="M240 802q20 0 29.5 -15.5t1.5 -35.5l-75 -180q-6 -14 -18.5 -23t-27.5 -9h-58q-13 0 -20.5 9t-5.5 23l34 190q3 17 17 29t31 12h92z" />
    <glyph glyph-name="quotesinglbase" unicode="&#x201a;" horiz-adv-x="229" 
d="M131 184q20 0 29.5 -15.5t1.5 -34.5l-75 -181q-6 -14 -18.5 -22.5t-27.5 -8.5h-58q-13 0 -20.5 9t-5.5 22l34 190q3 17 17 29t31 12h92z" />
    <glyph glyph-name="quotedblleft" unicode="&#x201c;" horiz-adv-x="457" 
d="M238 802q13 0 20.5 -9t5.5 -22l-34 -191q-3 -17 -17 -29t-31 -12h-91q-20 0 -30 15.5t-2 35.5l75 180q6 14 19 23t27 9h58zM487 802q13 0 21 -9t5 -22l-33 -191q-3 -17 -17.5 -29t-31.5 -12h-91q-20 0 -29.5 15.5t-1.5 35.5l75 180q6 14 18.5 23t26.5 9h58z" />
    <glyph glyph-name="quotedblright" unicode="&#x201d;" horiz-adv-x="438" 
d="M232 802q20 0 29.5 -15.5t1.5 -35.5l-75 -180q-6 -14 -18.5 -23t-27.5 -9h-58q-13 0 -20.5 9t-5.5 23l34 190q3 17 17 29t31 12h92zM481 802q20 0 29.5 -15.5t1.5 -35.5l-75 -180q-5 -14 -18 -23t-27 -9h-58q-13 0 -20.5 9t-5.5 23l33 190q3 17 17.5 29t31.5 12h91z" />
    <glyph glyph-name="quotedblbase" unicode="&#x201e;" horiz-adv-x="478" 
d="M131 184q20 0 29.5 -15.5t1.5 -34.5l-75 -181q-6 -14 -18.5 -22.5t-27.5 -8.5h-58q-13 0 -20.5 9t-5.5 22l34 190q3 17 17 29t31 12h92zM380 184q20 0 29.5 -15.5t1.5 -34.5l-75 -181q-5 -14 -18 -22.5t-27 -8.5h-58q-13 0 -20.5 9t-5.5 22l33 190q3 17 17.5 29t31.5 12
h91z" />
    <glyph glyph-name="dagger" unicode="&#x2020;" horiz-adv-x="746" 
d="M721 585q17 0 26.5 -11t6.5 -27l-18 -101q-3 -16 -16.5 -27.5t-30.5 -11.5h-193q-8 0 -9 -8l-86 -475q-3 -16 -16.5 -27t-30.5 -11h-132q-16 0 -25.5 11t-6.5 27l42 232l44 243q1 8 -7 8h-193q-16 0 -25.5 11.5t-6.5 27.5l18 101q3 16 16.5 27t29.5 11h194q7 0 9 7
l33 183q3 16 16.5 27.5t29.5 11.5h132q16 0 25.5 -11.5t6.5 -27.5l-33 -180q0 -3 2.5 -6.5t6.5 -3.5h191z" />
    <glyph glyph-name="bullet" unicode="&#x2022;" horiz-adv-x="295" 
d="M237 465q19 0 30 -13.5t8 -32.5l-25 -139q-3 -19 -19 -32.5t-35 -13.5h-138q-20 0 -31 13.5t-7 32.5l24 139q4 19 19.5 32.5t34.5 13.5h139z" />
    <glyph glyph-name="ellipsis" unicode="&#x2026;" horiz-adv-x="1034" 
d="M146 184q16 0 24.5 -10.5t6.5 -25.5l-20 -111q-3 -15 -15.5 -26t-27.5 -11h-111q-15 0 -24 10.5t-6 26.5l19 111q3 15 15.5 25.5t27.5 10.5h111zM542 184q16 0 24.5 -10.5t6.5 -25.5l-20 -111q-3 -15 -15.5 -26t-27.5 -11h-111q-15 0 -24 10.5t-6 26.5l19 111
q3 15 15.5 25.5t27.5 10.5h111zM938 184q16 0 24.5 -10.5t6.5 -25.5l-20 -111q-3 -15 -15.5 -26t-27.5 -11h-111q-15 0 -24 10.5t-6 26.5l19 111q3 15 15.5 25.5t27.5 10.5h111z" />
    <glyph glyph-name="guilsinglleft" unicode="&#x2039;" horiz-adv-x="433" 
d="M432 542l-177 -185q-12 -12 -5 -25l103 -175q7 -12 0.5 -23.5t-20.5 -11.5h-167q-23 0 -35 19q-13 23 -40.5 70.5t-66.5 112.5q-13 21 7 42q0 -1 6 5.5t21 22t35 36.5t53 55.5t70 72.5q18 19 41 19h167q14 0 16.5 -11.5t-8.5 -23.5z" />
    <glyph glyph-name="guilsinglright" unicode="&#x203a;" horiz-adv-x="434" 
d="M408 375q12 -21 -8 -42q1 1 -5 -5.5t-21 -22t-35 -36.5t-53 -55.5t-70 -72.5q-18 -19 -41 -19h-167q-14 0 -16.5 11.5t8.5 23.5l177 185q12 12 4 24l-103 176q-7 12 0 23.5t21 11.5h167q23 0 34 -19q14 -23 41.5 -70.5t66.5 -112.5z" />
    <glyph glyph-name="Euro" unicode="&#x20ac;" horiz-adv-x="761" 
d="M743 702q17 0 26.5 -11.5t6.5 -27.5l-19 -103q-3 -16 -16.5 -27.5t-29.5 -11.5h-337q-10 0 -18 -7t-10 -16l-7 -40h187q7 0 11 -5t3 -12l-8 -46q-2 -7 -7.5 -11.5t-11.5 -4.5h-188l-10 -53h183q7 0 11 -5t3 -12l-9 -47q-1 -6 -6.5 -10.5t-12.5 -4.5h-183l-8 -39
q-1 -10 4.5 -17t15.5 -7h337q16 0 25.5 -11.5t6.5 -27.5l-19 -105q-3 -16 -16.5 -27.5t-29.5 -11.5h-388q-77 0 -122 53.5t-31 129.5l12 63h-55q-7 0 -11 5t-3 12l9 46q1 7 6.5 11.5t12.5 4.5h55l10 53h-50q-7 0 -11.5 5t-2.5 12l8 46q1 7 6.5 11.5t12.5 4.5h52l11 62
q14 75 78 128.5t141 53.5h386z" />
    </font>
</defs>
</svg>
