<svg xmlns="http://www.w3.org/2000/svg" width="19.606" height="13.573" viewBox="0 0 19.606 13.573">
  <g id="Icon_ionic-ios-mail" data-name="Icon ionic-ios-mail" transform="translate(-3.375 -7.875)">
    <path id="Path_4674" data-name="Path 4674" d="M22.821,10.343,17.75,15.508a.091.091,0,0,0,0,.132L21.3,19.42a.612.612,0,0,1,0,.867.614.614,0,0,1-.867,0L16.9,16.521a.1.1,0,0,0-.137,0L15.9,17.4a3.8,3.8,0,0,1-2.705,1.141,3.871,3.871,0,0,1-2.762-1.174L9.6,16.521a.1.1,0,0,0-.137,0L5.929,20.287a.614.614,0,0,1-.867,0,.612.612,0,0,1,0-.867l3.549-3.78a.1.1,0,0,0,0-.132L3.535,10.343a.093.093,0,0,0-.16.066V20.744a1.513,1.513,0,0,0,1.508,1.508h16.59a1.513,1.513,0,0,0,1.508-1.508V10.409A.094.094,0,0,0,22.821,10.343Z" transform="translate(0 -0.804)" fill="#ffb806"/>
    <path id="Path_4675" data-name="Path 4675" d="M13.458,16.5a2.562,2.562,0,0,0,1.843-.773L22.7,8.2a1.481,1.481,0,0,0-.933-.33H5.159a1.471,1.471,0,0,0-.933.33l7.395,7.527A2.563,2.563,0,0,0,13.458,16.5Z" transform="translate(-0.281)" fill="#ffb806"/>
  </g>
</svg>
