<svg xmlns="http://www.w3.org/2000/svg" width="23.255" height="10.086" viewBox="0 0 23.255 10.086">
  <g id="Icon_feather-arrow-right" data-name="Icon feather-arrow-right" transform="translate(25.458 -6.75)">
    <path id="Path_5" data-name="Path 5" d="M29.255,18.75H7.5a.75.75,0,0,1,0-1.5H29.255a.75.75,0,1,1,0,1.5Z" transform="translate(-32.208 -6.207)" fill="#ffb806"/>
    <path id="Path_6" data-name="Path 6" d="M18,16.836a.75.75,0,0,1-.53-1.28l3.763-3.763L17.47,8.03A.75.75,0,0,1,18.53,6.97l4.293,4.293a.75.75,0,0,1,0,1.061L18.53,16.616A.748.748,0,0,1,18,16.836Z" transform="translate(-25.247)" fill="#ffb806"/>
  </g>
</svg>
