<svg id="Group_111" data-name="Group 111" xmlns="http://www.w3.org/2000/svg" xmlns:xlink="http://www.w3.org/1999/xlink" width="99.325" height="78.085" viewBox="0 0 99.325 78.085">
  <defs>
    <linearGradient id="linear-gradient" x1="0.5" y1="0.075" x2="0.5" y2="0.865" gradientUnits="objectBoundingBox">
      <stop offset="0" stop-color="#b7b7b7"/>
      <stop offset="0.502" stop-color="#b7b7b7"/>
      <stop offset="0.517" stop-color="#fff"/>
      <stop offset="1" stop-color="#fff"/>
    </linearGradient>
    <linearGradient id="linear-gradient-2" x1="0.5" y1="0.09" x2="0.5" y2="0.852" xlink:href="#linear-gradient"/>
  </defs>
  <g id="OBJETS" transform="translate(0 0)">
    <g id="Group_106" data-name="Group 106" transform="translate(0 0)">
      <path id="Path_8129" data-name="Path 8129" d="M228.423,174.3h-3.56l4.155-20.588a2.546,2.546,0,0,0-3.721-2.737l-5.494,3.013a7.6,7.6,0,0,1-6.682.279l-6.1-1.576c-1-1.819-9.483-9.62-9.771-10.556-.5-1.635-38.62,4.948-38.425,5.285a29.472,29.472,0,0,0-2.91,4.328l-5.68,2.518a7.6,7.6,0,0,1-6.683-.279l-5.494-3.012a2.547,2.547,0,0,0-3.721,2.737L138.5,174.3h-4.3a2.547,2.547,0,0,0-2.547,2.547V195.8a2.547,2.547,0,0,0,1.722,2.409c3.489,1.195,92.648,1.107,95.882,0a2.546,2.546,0,0,0,1.722-2.409V176.85A2.547,2.547,0,0,0,228.423,174.3Z" transform="translate(-131.645 -136.497)" fill="#fff"/>
      <g id="Group_113" data-name="Group 113" transform="translate(2.547 30.941)">
        <path id="Path_8172" data-name="Path 8172" d="M215.62,286.48a15.109,15.109,0,0,1-9.942-10.944l-5.254-24.307a20.133,20.133,0,0,0,2.27-.783l20.421-8.45,20.418,8.449a20.061,20.061,0,0,0,2.274.784l-5.254,24.309a15.11,15.11,0,0,1-9.945,10.944l-7.493,2.658Z" transform="translate(-175.626 -241.995)" fill="#fff"/>
        <path id="Path_8173" data-name="Path 8173" d="M231.946,288.853a151.406,151.406,0,0,1-94.232,0V269.9h94.232Z" transform="translate(-137.714 -258.191)" fill="#fff"/>
      </g>
      <circle id="Ellipse_4" data-name="Ellipse 4" cx="28.749" cy="28.749" r="28.749" transform="translate(20.698)" fill="#fff"/>
      <g id="Group_105" data-name="Group 105" transform="translate(2.547 2.533)">
        <g id="Group_97" data-name="Group 97" transform="translate(2.646 4.086)">
          <path id="Path_8130" data-name="Path 8130" d="M228.209,201.774a10.768,10.768,0,0,1-8.939.351L188.861,189.5l-30.408,12.622a10.768,10.768,0,0,1-8.939-.351l-5.494-2.82,10.336,43.354c2.249,10.432,66.763,10.432,69.011,0L233.7,198.954Zm-76.255,6.43a16.989,16.989,0,0,0,8.855-1.1l28.051-11.645,28.052,11.645a16.989,16.989,0,0,0,8.855,1.1Z" transform="translate(-144.019 -189.503)" fill="#242535"/>
          <path id="Path_8131" data-name="Path 8131" d="M236.743,217.344c-3.168,46.7-64.244,42.8-66.1,34.263l-7.717-34.263a17.078,17.078,0,0,0,8.855-1.09l28.051-11.578,28.052,11.578A17.079,17.079,0,0,0,236.743,217.344Z" transform="translate(-154.995 -198.309)" fill="#f41e47"/>
          <path id="Path_8132" data-name="Path 8132" d="M184.793,236.688a23.473,23.473,0,0,0,2.774-1.026l24.959-11.068,24.954,11.066a23.482,23.482,0,0,0,2.779,1.027C232.507,275.11,227.964,280.469,184.793,236.688Z" transform="translate(-167.684 -209.87)" fill="#cc1b46"/>
          <path id="Path_8133" data-name="Path 8133" d="M214.6,286.48a14.78,14.78,0,0,1-9.277-10.944l-4.9-24.307a17.948,17.948,0,0,0,2.118-.783l19.056-8.45,19.053,8.449a17.882,17.882,0,0,0,2.122.784l-4.9,24.309a14.781,14.781,0,0,1-9.28,10.944l-6.992,2.658Z" transform="translate(-176.756 -219.969)" fill="#242535"/>
          <path id="Path_8134" data-name="Path 8134" d="M236.743,218.287a15.992,15.992,0,0,1-8.855-1.172l-28.052-12.44-28.051,12.44a15.992,15.992,0,0,1-8.855,1.172l.626,3.1,2.649,13.133-.441-13.041a15.837,15.837,0,0,0,6.021-1.337l28.051-12.439,28.052,12.439a15.847,15.847,0,0,0,6.323,1.34l-1,14.323,3.121-15.475h0Z" transform="translate(-154.995 -198.309)" fill="#fff"/>
        </g>
        <g id="Group_101" data-name="Group 101" transform="translate(20.655)">
          <g id="Group_99" data-name="Group 99">
            <g id="Group_98" data-name="Group 98">
              <path id="Path_8135" data-name="Path 8135" d="M213.771,179.766A26.833,26.833,0,1,0,240.6,206.6,26.862,26.862,0,0,0,213.771,179.766Zm19.118,38.352-8.138,2.32-5.585,7.667s-2.649.449-3.785.542a19.86,19.86,0,0,0,4.512-.08l1.618,1.037a24.189,24.189,0,0,1-15.481,0l1.618-1.037a19.86,19.86,0,0,0,4.512.08c-1.136-.094-3.785-.542-3.785-.542l-5.585-7.667-8.138-2.32-.968,2.1a24.138,24.138,0,0,1-4.191-13.618c0-.307.011-.608.023-.911l.738.528,2.538,6.258-1.136-5.253,5.111-7.735,6.957,1.809-7.042-3.844-.267-6.2-1.965.668a24.406,24.406,0,0,1,10.052-7.755,47.6,47.6,0,0,0-5.157,3.453,32.107,32.107,0,0,1,5.955-2.791l7.723,2.07.746,6.968.747-6.968,7.723-2.07a32.1,32.1,0,0,1,5.954,2.791,47.539,47.539,0,0,0-5.156-3.453,24.406,24.406,0,0,1,10.052,7.755l-1.965-.668-.267,6.2-7.042,3.844,6.957-1.809,5.111,7.735-1.135,5.253,2.538-6.258.738-.528c.011.3.023.6.023.911a24.138,24.138,0,0,1-4.191,13.618Z" transform="translate(-186.938 -179.766)" fill="#242535"/>
              <path id="Path_8136" data-name="Path 8136" d="M241.56,211.771l-.738.528-2.538,6.258,1.135-5.253-5.111-7.735-6.957,1.809,7.042-3.844.267-6.2,1.965.668a24.406,24.406,0,0,0-10.052-7.755,47.218,47.218,0,0,1,5.12,3.424,32.606,32.606,0,0,0-5.918-2.763l-7.723,2.07-.747,6.968-.746-6.968-7.723-2.07a32.6,32.6,0,0,0-5.918,2.763,47.222,47.222,0,0,1,5.12-3.424A24.406,24.406,0,0,0,197.986,198l1.965-.668.267,6.2,7.042,3.844L200.3,205.57l-5.111,7.735,1.136,5.253-2.538-6.258-.739-.528c-.011.3-.023.6-.023.911a24.138,24.138,0,0,0,4.191,13.618l.968-2.1,8.138,2.32,5.585,7.667s2.649.449,3.785.542a19.862,19.862,0,0,1-4.512-.08l-1.618,1.037a24.19,24.19,0,0,0,15.481,0l-1.618-1.037a19.863,19.863,0,0,1-4.512.08c1.136-.094,3.785-.542,3.785-.542l5.585-7.667,8.138-2.32.656,1.42.313.678a24.138,24.138,0,0,0,4.191-13.618C241.583,212.376,241.571,212.075,241.56,211.771Zm-18.769,6.514H211.82l-4.56,6.8,4.009-8.5-2.839-8.737,8.876-6.446,8.876,6.446-2.839,8.737,4.009,8.5Z" transform="translate(-190.473 -185.85)" fill="#fff"/>
              <path id="Path_8137" data-name="Path 8137" d="M247.036,240.519l-4.56-6.8H231.5l-4.56,6.8,4.009-8.5-2.839-8.737,8.876-6.446,8.876,6.446-2.839,8.737Z" transform="translate(-210.157 -201.281)" fill="#242535"/>
            </g>
            <path id="Path_8138" data-name="Path 8138" d="M236.5,196.384l.716,6.546-7.986,6.1,5.785-6.619-.639-5.555-4.934-2.414Z" transform="translate(-211.485 -188.287)" fill="#bec8ce"/>
            <path id="Path_8139" data-name="Path 8139" d="M211.722,229.8l6.5,1.739,2.626,7.95-4.295-6.886Z" transform="translate(-201.322 -208.808)" fill="#bec8ce"/>
            <path id="Path_8140" data-name="Path 8140" d="M230.077,266.283l3.5-6.436,9.938-.071,3.739,5.253-4-3.715-9.323.142Z" transform="translate(-211.976 -226.203)" fill="#bec8ce"/>
            <path id="Path_8141" data-name="Path 8141" d="M276.438,229.424l-5.43,1.7-2.7,8.128,3.425-6.8Z" transform="translate(-234.166 -208.587)" fill="#bec8ce"/>
            <path id="Path_8142" data-name="Path 8142" d="M279.267,205.461l.213-5.774-7.335-4.874,6.152,5.845Z" transform="translate(-236.392 -188.499)" fill="#bec8ce"/>
            <path id="Path_8143" data-name="Path 8143" d="M258.3,225.117l-7.359-5.774,6.176,6.649-1.325,5.8Z" transform="translate(-224.085 -202.737)" fill="#fff"/>
            <path id="Path_8144" data-name="Path 8144" d="M227.835,284.729,223.2,278.1l3.147,7.572Z" transform="translate(-207.983 -236.84)" fill="#fff"/>
            <path id="Path_8145" data-name="Path 8145" d="M285.548,273.24l-7.045,2.147,7.649-1.1Z" transform="translate(-240.082 -234.017)" fill="#fff"/>
            <path id="Path_8146" data-name="Path 8146" d="M259.759,190.168l-1.846-.26-5.111,1.964Z" transform="translate(-225.165 -185.652)" fill="#fff"/>
            <path id="Path_8147" data-name="Path 8147" d="M206.841,214.437l-.16-5.484-.923,4.916Z" transform="translate(-197.861 -196.706)" fill="#fff"/>
            <path id="Path_8148" data-name="Path 8148" d="M295.174,209.418l-1.8-.817,2.307,1.976S295.245,209.488,295.174,209.418Z" transform="translate(-248.714 -196.502)" fill="#fff"/>
          </g>
          <g id="Group_100" data-name="Group 100" transform="translate(6.201 1.254)">
            <path id="Path_8149" data-name="Path 8149" d="M201.717,182.926c0-.057,0-.114.008-.171A1.073,1.073,0,0,0,201.717,182.926Z" transform="translate(-201.716 -182.755)" fill="#f41e47"/>
          </g>
        </g>
        <g id="Group_102" data-name="Group 102" transform="translate(0 37.821)">
          <path id="Path_8152" data-name="Path 8152" d="M231.946,288.853a151.406,151.406,0,0,1-94.232,0V269.9h94.232Z" transform="translate(-137.714 -269.9)" fill="#242535"/>
        </g>
      </g>
    </g>
  </g>
  <g id="TEXTS" transform="translate(6.589 44.959)">
    <g id="Group_110" data-name="Group 110">
      <g id="Group_109" data-name="Group 109">
        <g id="Group_107" data-name="Group 107">
          <path id="Path_8156" data-name="Path 8156" d="M147.347,293.107v-2.472l.746.138c0-2.753,0-4.129.006-6.882l-.752-.039v-2.472c3.6.015,5.407.021,9.013.033-.012,1.808-.018,2.712-.029,4.52-1.065-.068-1.6-.1-2.662-.177,0-.639.005-.958.008-1.6l-1.369-.062c-.005,1.093-.007,1.639-.012,2.731.907.081,1.36.121,2.268.2,0,.776-.007,1.165-.011,1.941-.907-.1-1.36-.155-2.265-.264-.005,1.119-.008,1.678-.013,2.8.784.129,1.177.192,1.962.315-.006,1.112-.009,1.668-.015,2.78C151.464,294.051,150.089,293.753,147.347,293.107Z" transform="translate(-147.347 -281.168)" fill="#fff"/>
          <path id="Path_8157" data-name="Path 8157" d="M171.182,293.576a9.036,9.036,0,0,1-1.457-5.628c.016-2.468.527-4.231,1.534-5.355a5.459,5.459,0,0,1,4.271-1.717,5.057,5.057,0,0,1,4.244,1.874c.99,1.266,1.476,3.311,1.455,6.091s-.536,4.766-1.546,5.9A4.427,4.427,0,0,1,175.414,296,6.323,6.323,0,0,1,171.182,293.576Zm5.028-1.162a1.641,1.641,0,0,0,.264-1.033c.018-2.291.026-3.436.044-5.727a1.809,1.809,0,0,0-.248-1.071.927.927,0,0,0-.766-.366.885.885,0,0,0-.771.308,1.673,1.673,0,0,0-.264,1.03l-.042,5.608a1.848,1.848,0,0,0,.248,1.08,1.04,1.04,0,0,0,.765.42A.808.808,0,0,0,176.209,292.414Z" transform="translate(-160.334 -280.876)" fill="#fff"/>
          <path id="Path_8158" data-name="Path 8158" d="M199.6,295.111c-.993-1.383-1.478-3.454-1.458-6.243s.535-4.8,1.545-6.067a5.16,5.16,0,0,1,4.272-1.924,4.947,4.947,0,0,1,4.249,2.017c.994,1.353,1.486,3.527,1.473,6.5s-.524,5.118-1.535,6.4a4.569,4.569,0,0,1-4.288,1.678A5.621,5.621,0,0,1,199.6,295.111Zm5.054-1.623a1.991,1.991,0,0,0,.264-1.143c.014-2.5.022-3.751.036-6.253a2.088,2.088,0,0,0-.25-1.165.886.886,0,0,0-.767-.387.863.863,0,0,0-.772.353,2.008,2.008,0,0,0-.264,1.14c-.016,2.473-.024,3.71-.039,6.182a2.113,2.113,0,0,0,.25,1.175.953.953,0,0,0,.769.415A.818.818,0,0,0,204.659,293.488Z" transform="translate(-176.831 -280.876)" fill="#fff"/>
          <path id="Path_8159" data-name="Path 8159" d="M238.046,286.8c-1.039,0-1.559,0-2.6,0,0-.672,0-1.007,0-1.679l-.966,0c0,3.873-.007,5.81-.012,9.683l1.061.011c0,1.412,0,2.119,0,3.531-2.55-.026-3.825-.06-6.373-.17,0-1.4.007-2.1.011-3.5.424.015.636.022,1.06.034l.027-9.619-.966-.009c0,.665,0,1-.005,1.663-1.039-.015-1.559-.023-2.6-.042.008-2.049.013-3.072.021-5.121,4.535,0,6.8.005,11.337.005C238.045,283.673,238.045,284.716,238.046,286.8Z" transform="translate(-193.395 -281.286)" fill="#fff"/>
          <path id="Path_8160" data-name="Path 8160" d="M254.983,294.819l.757,0c0-3.877,0-5.815-.007-9.692h-.755c0-1.413,0-2.12,0-3.533l6.92,0a3.947,3.947,0,0,1,2.944,1.076,4.212,4.212,0,0,1,1.07,3.071,4.746,4.746,0,0,1-.414,2.106,3.706,3.706,0,0,1-.984,1.314,3.4,3.4,0,0,1-1.094.612v.212a3.442,3.442,0,0,1,1.939.9,3.722,3.722,0,0,1,.875,2.831,4.223,4.223,0,0,1-1.182,3.3,4.733,4.733,0,0,1-3.1,1.181c-2.785.117-4.178.15-6.965.166C254.984,296.939,254.983,296.232,254.983,294.819Zm5.8-6.214a.747.747,0,0,0,.656-.342,1.933,1.933,0,0,0,.216-1.039c0-.308,0-.461,0-.768a1.906,1.906,0,0,0-.222-1.033.73.73,0,0,0-.658-.326l-.815.006c0,1.406.005,2.108.008,3.514Zm.123,6.115a.762.762,0,0,0,.658-.351,1.944,1.944,0,0,0,.216-1.042c0-.376,0-.564,0-.939a1.886,1.886,0,0,0-.222-1.03.724.724,0,0,0-.659-.316l-.923.018c0,1.474.005,2.211.009,3.685Z" transform="translate(-209.815 -281.289)" fill="#fff"/>
          <path id="Path_8161" data-name="Path 8161" d="M293.894,293.609l.6-.061.024,3.208c-2.365.3-3.549.438-5.921.669-.009-1.339-.013-2.008-.022-3.346l.907-.072c-.1-.642-.152-.963-.253-1.607-.822.057-1.232.085-2.055.136-.093.665-.139,1-.232,1.663l.907-.065c.008,1.344.013,2.017.021,3.361-2.07.194-3.105.277-5.178.414-.007-1.379-.01-2.068-.017-3.447l.605-.033q1.233-6.439,2.484-12.875l5.487-.009Q292.547,287.583,293.894,293.609Zm-6.4-3.27c.556-.029.834-.043,1.39-.074-.258-1.607-.388-2.414-.646-4.034l-.15,0C287.853,287.871,287.735,288.693,287.5,290.34Z" transform="translate(-225.893 -281.264)" fill="#fff"/>
          <path id="Path_8162" data-name="Path 8162" d="M311.893,296.659c-.01-1.278-.014-1.917-.024-3.195l.754-.08-.066-8.709-.754.023-.024-3.195,6.361-.017c.009,1.2.013,1.8.022,3l-1.386.05c.026,3.343.038,5.015.063,8.358.542-.068.812-.1,1.353-.173,0-.673-.007-1.01-.012-1.683,1.2-.133,1.8-.2,2.991-.35l.03,4.516C317.489,295.877,315.626,296.168,311.893,296.659Z" transform="translate(-242.782 -281.23)" fill="#fff"/>
          <path id="Path_8163" data-name="Path 8163" d="M335.325,295.064c-.008-1.149-.011-1.724-.019-2.874l.75-.111c-.019-3.123-.029-4.684-.049-7.807l-.752.031c-.008-1.15-.011-1.724-.019-2.874l6.36-.023c0,1.044,0,1.566.008,2.61l-1.384.067c.012,2.932.018,4.4.029,7.331.538-.09.807-.136,1.346-.23,0-.586,0-.879,0-1.465,1.191-.176,1.786-.267,2.975-.456v3.859C340.884,293.991,339.035,294.379,335.325,295.064Z" transform="translate(-256.397 -281.184)" fill="#fff"/>
        </g>
        <g id="Group_108" data-name="Group 108" transform="translate(0.414 0.522)">
          <path id="Path_8164" data-name="Path 8164" d="M148.334,293.368c0-.659,0-.988,0-1.647l.745.143c0-3.118.006-4.677.01-7.795l-.752-.032c0-.659,0-.988,0-1.647,3.268.04,4.9.058,8.171.09-.009,1.412-.013,2.117-.022,3.528-.73-.042-1.095-.064-1.825-.109,0-.643.005-.964.009-1.607-.883-.033-1.325-.05-2.207-.085-.006,1.449-.009,2.173-.015,3.622.906.089,1.36.132,2.267.216,0,.4,0,.593-.005.988-.907-.1-1.36-.147-2.265-.251-.006,1.475-.009,2.213-.016,3.688.784.137,1.176.2,1.961.333,0,.73-.006,1.1-.01,1.825C151.956,294.164,150.746,293.911,148.334,293.368Z" transform="translate(-148.334 -282.278)" fill="url(#linear-gradient)"/>
          <path id="Path_8165" data-name="Path 8165" d="M176,296.2a5.86,5.86,0,0,1-3.943-2.218,8.547,8.547,0,0,1-1.331-5.275c.016-2.332.488-4.006,1.4-5.028a5.063,5.063,0,0,1,3.978-1.561,4.76,4.76,0,0,1,3.954,1.738c.9,1.152,1.349,3.076,1.33,5.679s-.5,4.47-1.414,5.5A4.171,4.171,0,0,1,176,296.2Zm.09-11.786a1.258,1.258,0,0,0-1.078.465,2.205,2.205,0,0,0-.381,1.375c-.017,2.233-.025,3.349-.042,5.582a2.452,2.452,0,0,0,.364,1.451,1.478,1.478,0,0,0,1.064.618,1.125,1.125,0,0,0,1.075-.374,2.182,2.182,0,0,0,.382-1.387l.044-5.75a2.408,2.408,0,0,0-.36-1.443A1.3,1.3,0,0,0,176.087,284.417Z" transform="translate(-161.327 -282.121)" fill="url(#linear-gradient-2)"/>
          <path id="Path_8166" data-name="Path 8166" d="M204.447,297.691a5.224,5.224,0,0,1-3.967-2.161c-.9-1.258-1.351-3.215-1.332-5.844s.495-4.531,1.413-5.686a4.8,4.8,0,0,1,3.98-1.758A4.641,4.641,0,0,1,208.5,284.1c.9,1.232,1.358,3.279,1.346,6.068s-.485,4.808-1.4,5.976A4.288,4.288,0,0,1,204.447,297.691Zm.079-12.931a1.227,1.227,0,0,0-1.078.528,2.651,2.651,0,0,0-.381,1.526c-.016,2.467-.024,3.7-.04,6.167a2.8,2.8,0,0,0,.367,1.579,1.352,1.352,0,0,0,1.069.612,1.15,1.15,0,0,0,1.08-.476,2.638,2.638,0,0,0,.381-1.534l.036-6.266a2.779,2.779,0,0,0-.363-1.566A1.249,1.249,0,0,0,204.526,284.761Z" transform="translate(-177.826 -282.191)" fill="url(#linear-gradient-2)"/>
          <path id="Path_8167" data-name="Path 8167" d="M230.164,298.412l.007-2.312c.424.015.637.021,1.061.034.012-4.327.018-6.491.029-10.819l-1.806-.014c0,.665,0,1-.006,1.661-.7-.009-1.054-.014-1.756-.025.007-1.579.01-2.369.016-3.948,4.2.012,6.3.015,10.5.015,0,1.606,0,2.409,0,4.015-.7,0-1.054,0-1.757,0,0-.672,0-1.008,0-1.68l-1.806,0c-.006,4.351-.009,6.526-.015,10.876l1.061.013c0,.933,0,1.4,0,2.332C233.48,298.528,232.375,298.5,230.164,298.412Z" transform="translate(-194.393 -282.625)" fill="url(#linear-gradient)"/>
          <path id="Path_8168" data-name="Path 8168" d="M255.987,298.571c0-.933,0-1.4,0-2.333l.758-.006c0-4.355-.006-6.532-.01-10.888l-.754,0c0-.934,0-1.4,0-2.333,2.6,0,3.9,0,6.5-.009a3.628,3.628,0,0,1,2.7.959,3.537,3.537,0,0,1,.895,2.6,3.965,3.965,0,0,1-.341,1.773,3.194,3.194,0,0,1-.84,1.128,3.035,3.035,0,0,1-.975.546l-.338.1,0,1.235.38.043a2.635,2.635,0,0,1,2.432,3.156,3.543,3.543,0,0,1-.983,2.79,4.414,4.414,0,0,1-2.883,1.077C259.913,298.52,258.6,298.551,255.987,298.571Zm4.157-2.4c.539-.013.808-.021,1.347-.037a1.138,1.138,0,0,0,.966-.55,2.667,2.667,0,0,0,.329-1.451c0-.375,0-.563,0-.938a2.576,2.576,0,0,0-.337-1.431,1.079,1.079,0,0,0-.967-.5l-1.344.024C260.138,293.244,260.14,294.22,260.144,296.173Zm-.014-6.133,1.238-.019a1.117,1.117,0,0,0,.963-.536,2.642,2.642,0,0,0,.329-1.447c0-.307,0-.46,0-.767a2.611,2.611,0,0,0-.337-1.436,1.093,1.093,0,0,0-.966-.513l-1.235.008Z" transform="translate(-210.81 -282.633)" fill="url(#linear-gradient)"/>
          <path id="Path_8169" data-name="Path 8169" d="M289.6,297.592c-.006-.882-.008-1.323-.014-2.2l1-.085c-.172-1.083-.257-1.626-.429-2.716-1.1.074-1.646.108-2.743.172-.158,1.128-.236,1.693-.394,2.826l1-.073c.005.89.008,1.335.014,2.225-1.733.153-2.6.22-4.335.334,0-.909-.007-1.363-.011-2.273l.505-.029q1.232-6.434,2.483-12.865c1.939-.009,2.909-.013,4.849-.025q1.29,6.048,2.637,12.085l.5-.052c.006.851.01,1.276.016,2.126C292.655,297.285,291.639,297.4,289.6,297.592Zm-2.033-5.878c.969-.052,1.454-.079,2.422-.138-.331-2.049-.5-3.079-.827-5.148l-.835.022C288.028,288.546,287.876,289.6,287.571,291.713Z" transform="translate(-226.894 -282.561)" fill="url(#linear-gradient)"/>
          <path id="Path_8170" data-name="Path 8170" d="M312.895,296.772c-.006-.841-.01-1.262-.016-2.1l.753-.085c-.03-3.9-.044-5.85-.074-9.75l-.754.02c-.006-.841-.01-1.262-.016-2.1,2.209-.016,3.313-.024,5.522-.043.006.8.009,1.195.015,1.991l-1.386.042c.028,3.774.043,5.66.071,9.434.877-.113,1.315-.172,2.19-.293,0-.67-.007-1-.012-1.675.862-.1,1.293-.156,2.154-.266.01,1.421.015,2.132.024,3.553C317.987,296.078,316.291,296.334,312.895,296.772Z" transform="translate(-243.782 -282.462)" fill="url(#linear-gradient)"/>
          <path id="Path_8171" data-name="Path 8171" d="M336.324,295.12c-.005-.755-.008-1.133-.012-1.888l.749-.117c-.021-3.489-.032-5.233-.053-8.722l-.753.026c0-.755-.007-1.133-.012-1.887,2.208-.022,3.312-.034,5.52-.059l.005,1.737-1.384.055c.014,3.317.021,4.976.035,8.294.872-.151,1.307-.228,2.177-.388,0-.582,0-.872,0-1.454.857-.135,1.286-.2,2.142-.346,0,1.218,0,1.827,0,3.044C341.383,294.171,339.7,294.512,336.324,295.12Z" transform="translate(-257.395 -282.326)" fill="url(#linear-gradient)"/>
        </g>
      </g>
    </g>
  </g>
</svg>
